{"glyphs":{":":{"x_min":0,"x_max":244,"ha":244,"o":"m 228 414 q 228 396 221 379 q 215 361 203 347 q 191 333 173 324 q 155 314 131 314 q 97 314 81 331 q 65 347 65 373 q 65 389 72 406 q 79 423 92 437 q 104 451 122 460 q 140 469 163 469 q 196 469 212 453 q 228 438 228 414 z m 182 84 q 182 67 176 49 q 170 32 158 18 q 146 3 127 -6 q 109 -15 85 -15 q 51 -15 36 1 q 20 17 20 43 q 20 59 27 76 q 34 93 46 107 q 59 122 77 131 q 95 140 118 140 q 150 140 166 124 q 182 108 182 84 z"},"$":{"x_min":0,"x_max":473,"ha":473,"o":"m 161 464 q 161 452 163 442 q 166 432 172 423 q 178 414 189 405 q 200 396 218 387 l 239 537 q 222 534 207 528 q 193 521 183 511 q 172 501 167 489 q 161 477 161 464 z m 319 167 q 319 193 305 212 q 292 231 261 249 l 234 61 q 276 68 298 95 q 319 123 319 167 z m 460 559 q 462 557 460 549 q 458 540 453 527 q 448 515 442 500 q 436 486 429 473 q 422 460 417 451 q 411 442 408 440 l 375 445 q 372 460 366 474 q 360 487 351 499 q 342 510 330 519 q 317 528 301 533 l 277 362 q 312 348 340 333 q 368 317 388 299 q 408 280 418 257 q 429 234 429 204 q 429 166 417 131 q 405 96 379 67 q 354 39 316 18 q 277 -2 225 -10 l 217 -62 q 208 -70 194 -77 q 180 -84 168 -87 l 153 -72 l 161 -15 l 157 -15 q 133 -15 105 -7 q 77 1 53 13 q 29 25 13 40 q -3 54 -3 67 q -3 73 0 83 q 4 94 10 107 q 15 120 22 133 q 29 146 37 157 q 44 167 51 174 q 58 181 63 181 q 67 181 72 174 q 77 167 83 156 q 89 144 97 130 q 104 117 115 104 q 126 90 140 79 q 154 68 172 63 l 202 276 q 198 278 193 280 q 188 281 183 284 q 152 295 128 309 q 103 322 86 339 q 69 356 60 377 q 50 399 50 427 q 50 454 61 481 q 72 509 95 532 q 119 556 156 573 q 194 590 248 597 l 256 653 q 269 661 280 669 q 291 678 304 682 l 319 666 l 310 601 l 312 601 q 333 601 354 597 q 375 594 395 588 q 414 582 431 574 q 447 566 460 559 z"},"?":{"x_min":0,"x_max":439,"ha":439,"o":"m 265 84 q 265 67 259 49 q 253 32 241 18 q 229 3 210 -6 q 192 -15 168 -15 q 134 -15 119 1 q 103 17 103 43 q 103 59 110 76 q 117 93 129 107 q 142 122 160 131 q 178 140 201 140 q 233 140 249 124 q 265 108 265 84 z m 449 579 q 449 539 434 507 q 420 475 398 448 q 376 422 350 398 q 324 375 301 352 q 277 328 260 303 q 243 277 239 247 l 234 205 q 229 201 222 198 q 215 194 207 191 q 199 188 191 185 q 184 182 178 180 l 167 190 l 169 251 q 170 282 181 308 q 192 334 208 358 q 224 382 242 405 q 261 427 276 450 q 292 474 302 498 q 312 523 312 551 q 312 569 308 586 q 305 603 298 615 q 291 627 281 635 q 270 642 256 642 q 242 642 231 634 q 220 625 213 610 q 207 595 206 575 q 205 555 209 531 q 198 526 181 521 q 165 515 146 510 q 128 506 112 502 q 95 499 84 498 l 69 518 q 69 549 86 581 q 104 613 134 639 q 165 665 208 682 q 251 698 303 698 q 338 698 365 689 q 392 680 411 664 q 429 647 439 626 q 449 604 449 579 z"},"<":{"x_min":0,"x_max":439,"ha":439,"o":"m 423 436 q 421 430 418 421 q 414 412 410 401 q 406 391 403 382 q 399 373 397 368 l 157 278 l 377 187 l 386 164 q 381 159 374 153 q 367 146 360 139 q 352 132 344 126 q 336 120 329 115 l 42 234 l 29 256 q 32 263 35 271 q 39 279 42 288 q 46 297 50 305 q 53 313 56 319 l 410 453 z"},"'":{"x_min":0,"x_max":244,"ha":244,"o":"m 167 415 q 163 412 156 410 q 148 409 140 407 q 132 406 125 405 q 117 404 111 404 l 103 655 q 107 657 116 661 q 126 665 138 669 q 150 674 164 678 q 178 683 190 687 q 203 691 212 694 q 221 697 225 698 l 248 683 z"},"=":{"x_min":0,"x_max":439,"ha":439,"o":"m 415 369 q 413 364 409 355 q 405 347 400 338 q 395 330 391 322 q 386 314 384 310 l 52 310 l 40 327 q 42 332 45 340 q 49 348 54 357 q 59 365 63 373 q 67 381 70 386 l 402 386 z m 395 223 q 393 217 389 209 q 385 201 380 192 q 375 183 371 175 q 366 167 364 164 l 32 164 l 20 180 q 21 186 25 194 q 29 202 34 210 q 39 219 43 227 q 47 234 50 239 l 382 239 z"},"a":{"x_min":0,"x_max":492,"ha":492,"o":"m 282 176 q 284 196 288 219 q 291 243 295 266 q 298 290 302 311 q 306 333 309 349 q 295 362 281 372 q 267 382 254 381 q 234 381 218 372 q 202 362 189 347 q 177 332 168 312 q 159 292 153 270 q 147 248 144 226 q 142 204 142 185 q 142 159 145 140 q 148 122 154 109 q 160 97 167 92 q 174 86 182 86 q 188 86 197 90 q 207 95 219 105 q 231 116 247 133 q 263 150 282 176 z m 491 58 q 471 43 449 29 q 428 15 409 4 q 390 -7 375 -13 q 359 -20 351 -20 q 343 -20 332 -15 q 321 -10 310 2 q 300 15 291 35 q 282 55 278 86 q 262 64 244 45 q 227 26 208 11 q 189 -3 169 -11 q 150 -20 130 -20 q 112 -20 92 -11 q 72 -1 55 19 q 38 39 27 71 q 16 103 16 149 q 16 188 26 224 q 36 261 55 295 q 73 329 100 358 q 127 388 162 411 q 188 429 226 443 q 264 457 309 457 q 329 457 349 448 q 369 439 387 428 q 406 436 424 443 q 441 450 455 457 l 472 420 q 464 414 458 408 q 453 403 449 396 q 445 389 442 378 q 438 368 435 352 q 428 316 422 285 q 417 253 413 227 q 409 201 407 181 q 405 162 405 151 q 405 138 407 125 q 409 113 413 103 q 417 93 421 87 q 426 81 432 81 q 441 81 452 84 q 463 86 483 95 z"},"L":{"x_min":0,"x_max":497,"ha":497,"o":"m 473 158 q 468 137 462 113 q 457 88 451 65 q 445 42 440 25 q 435 7 433 0 l -5 0 l 0 41 q 32 47 49 55 q 65 63 66 70 l 131 544 q 132 550 119 559 q 105 568 74 575 l 79 615 l 329 615 l 324 575 q 292 568 275 560 q 259 551 258 544 l 197 100 q 196 91 199 84 q 202 78 211 73 q 220 68 236 66 q 251 63 276 63 l 323 63 q 344 63 359 70 q 375 76 387 89 q 400 102 412 123 q 423 143 437 172 z"},"3":{"x_min":0,"x_max":473,"ha":473,"o":"m 426 489 q 426 462 418 440 q 409 417 394 398 q 379 379 358 365 q 338 351 314 341 q 340 338 359 326 q 378 314 390 296 q 403 278 409 256 q 415 233 415 209 q 415 163 395 122 q 375 82 342 51 q 309 21 264 3 q 220 -15 171 -15 q 154 -15 132 -9 q 109 -3 87 7 q 64 18 42 33 q 21 49 4 68 l 33 120 q 68 86 104 73 q 139 60 173 60 q 195 60 214 69 q 234 79 249 96 q 264 114 272 139 q 281 164 281 196 q 281 245 259 267 q 237 290 201 290 l 191 290 q 187 290 183 289 q 179 289 174 288 q 169 288 163 286 l 160 335 q 295 368 295 483 q 295 514 285 528 q 275 542 254 542 q 242 542 232 537 q 222 532 214 522 q 207 512 203 498 q 200 483 201 465 q 191 459 176 453 q 161 446 144 440 q 127 435 111 431 q 95 427 83 427 l 71 461 q 74 482 91 507 q 109 531 137 553 q 165 574 202 589 q 239 603 281 603 q 324 603 352 594 q 379 584 396 568 q 413 552 419 531 q 426 511 426 489 z"},";":{"x_min":0,"x_max":244,"ha":244,"o":"m 229 414 q 229 396 222 379 q 216 361 204 347 q 192 333 174 324 q 156 314 132 314 q 98 314 82 331 q 66 347 66 373 q 66 389 73 406 q 80 423 93 437 q 105 451 123 460 q 141 469 164 469 q 197 469 213 453 q 229 438 229 414 z m 195 60 q 195 37 187 12 q 179 -12 166 -37 q 153 -62 136 -85 q 119 -108 100 -129 q 82 -150 62 -166 q 43 -183 26 -193 l -5 -166 q 14 -146 28 -126 q 42 -105 51 -86 q 61 -66 65 -48 q 70 -30 70 -15 q 70 -6 66 3 q 63 13 56 20 q 49 27 39 32 q 29 36 15 35 l 13 78 q 19 83 30 88 q 41 94 55 100 q 68 106 83 112 q 99 117 113 122 q 127 126 139 129 q 151 131 159 131 q 176 122 186 106 q 195 90 195 60 z"},"J":{"x_min":0,"x_max":321,"ha":321,"o":"m 345 575 q 314 568 297 560 q 280 551 279 544 l 220 100 q 212 46 196 8 q 180 -30 159 -58 q 139 -86 116 -106 q 93 -125 73 -141 q 60 -151 42 -161 q 24 -171 5 -179 q -15 -187 -34 -191 q -54 -196 -71 -196 q -90 -196 -109 -190 q -128 -185 -144 -177 q -159 -170 -168 -161 q -178 -153 -178 -147 q -178 -144 -172 -135 q -166 -127 -157 -118 q -148 -108 -137 -98 q -126 -87 -116 -79 q -105 -70 -97 -65 q -88 -59 -84 -59 q -80 -59 -72 -66 q -63 -74 -52 -83 q -42 -92 -28 -99 q -15 -106 0 -106 q 12 -106 24 -101 q 36 -96 47 -78 q 58 -60 68 -26 q 79 8 86 65 l 152 544 q 152 547 150 551 q 147 554 138 558 q 130 562 114 566 q 98 570 72 575 l 77 615 l 351 615 z"},"V":{"x_min":0,"x_max":613,"ha":613,"o":"m 662 575 q 630 568 612 562 q 594 556 587 542 l 350 43 q 345 33 333 23 q 321 14 306 7 q 292 0 275 -6 q 259 -11 246 -15 l 114 542 q 110 555 98 563 q 86 571 58 575 l 63 615 l 307 615 l 301 575 q 265 572 252 565 q 240 558 243 543 l 333 153 l 515 542 q 519 550 518 555 q 517 560 511 563 q 505 567 494 570 q 482 572 464 575 l 470 615 l 667 615 z"},"\"":{"x_min":0,"x_max":451,"ha":451,"o":"m 167 415 q 163 412 156 410 q 148 409 140 407 q 132 406 125 405 q 117 404 111 404 l 103 655 q 107 657 116 661 q 126 665 138 669 q 150 674 164 678 q 178 683 190 687 q 203 691 212 694 q 221 697 225 698 l 248 683 z m 357 415 q 354 412 346 410 q 339 409 331 407 q 323 406 315 405 q 307 404 302 404 l 293 655 q 297 657 307 661 q 316 665 329 669 q 341 674 354 678 q 368 683 381 687 q 393 691 402 694 q 412 697 415 698 l 438 683 z"},"7":{"x_min":0,"x_max":473,"ha":473,"o":"m 491 570 q 462 517 435 464 q 408 411 382 359 q 356 307 333 258 q 309 209 289 167 q 269 124 252 88 q 236 52 225 26 q 216 21 201 14 q 186 8 169 3 q 153 -2 137 -7 q 121 -12 109 -15 l 88 6 q 122 56 149 100 q 177 144 202 184 q 226 224 248 261 q 270 298 290 336 q 311 373 332 411 q 352 449 375 491 l 168 491 q 161 491 153 489 q 145 487 135 479 q 126 471 115 455 q 103 438 89 410 l 56 424 q 58 431 62 444 q 65 458 70 473 q 74 489 79 506 q 83 523 88 539 q 92 555 96 568 q 100 581 103 588 l 478 588 z"},"S":{"x_min":0,"x_max":488,"ha":488,"o":"m 484 585 q 486 583 484 575 q 482 567 477 556 q 472 545 466 532 q 459 520 452 508 q 445 497 439 488 q 433 480 430 478 l 396 481 q 391 504 381 521 q 371 538 358 548 q 345 559 331 564 q 316 569 301 569 q 277 569 259 562 q 242 555 230 544 q 219 532 214 517 q 208 502 208 486 q 208 475 212 463 q 215 452 226 439 q 237 426 257 412 q 276 397 309 381 q 348 361 376 342 q 404 323 423 303 q 441 283 450 260 q 459 237 459 210 q 459 164 438 123 q 418 83 382 52 q 347 21 298 3 q 250 -15 194 -15 q 167 -15 135 -9 q 103 -2 74 8 q 46 19 27 33 q 8 46 8 61 q 8 66 12 76 q 17 85 23 97 q 30 108 38 120 q 47 131 55 141 q 64 151 72 157 q 80 163 85 163 q 90 163 98 155 q 105 147 114 135 q 123 124 135 110 q 146 96 161 84 q 175 72 193 64 q 210 57 232 57 q 253 57 272 64 q 292 71 306 84 q 320 97 328 117 q 336 136 336 161 q 336 183 329 201 q 322 220 305 237 q 289 253 263 270 q 237 286 200 303 q 167 318 146 335 q 125 352 114 370 q 102 389 97 409 q 92 430 92 453 q 92 485 109 517 q 126 549 157 574 q 188 599 233 614 q 277 630 332 630 q 382 630 421 616 q 461 603 484 585 z"},"}":{"x_min":0,"x_max":343,"ha":343,"o":"m 302 308 q 250 293 224 268 q 198 242 193 206 q 189 180 190 159 q 190 139 191 120 q 191 101 191 81 q 191 60 188 34 q 184 0 165 -27 q 146 -54 118 -77 q 89 -100 52 -119 q 16 -138 -26 -154 l -40 -112 q -21 -100 -5 -86 q 12 -72 24 -57 q 36 -42 44 -26 q 52 -10 54 6 q 58 31 58 51 q 58 71 57 91 q 56 111 56 131 q 56 151 59 176 q 62 197 72 217 q 81 236 96 254 q 110 271 129 285 q 147 299 168 308 q 124 317 106 351 q 88 385 95 439 q 99 464 105 488 q 111 511 117 532 q 124 554 129 574 q 135 595 138 616 q 140 633 140 648 q 139 664 133 677 q 127 691 114 704 q 102 717 80 731 l 106 781 q 146 764 178 747 q 210 730 231 710 q 252 689 261 663 q 271 637 266 602 q 262 577 256 555 q 250 534 244 513 q 238 492 232 470 q 226 448 223 421 q 217 381 230 366 q 243 351 270 351 l 279 351 q 282 351 285 351 q 287 351 290 352 q 293 353 300 354 z"},"Z":{"x_min":0,"x_max":526,"ha":526,"o":"m 168 68 l 365 68 q 375 68 384 77 q 393 85 402 101 q 411 117 421 140 q 432 164 444 194 l 486 182 q 483 167 479 141 q 475 116 470 90 q 466 63 462 39 q 458 14 456 0 l 20 0 l 5 27 l 376 547 l 209 547 q 202 547 191 538 q 181 528 169 512 q 158 496 147 474 q 136 452 127 426 l 85 437 l 128 623 q 140 620 150 618 q 160 617 169 616 q 179 615 189 615 l 525 615 l 537 589 z"},"x":{"x_min":0,"x_max":469,"ha":469,"o":"m 462 55 q 441 40 420 27 q 399 13 379 3 q 359 -8 342 -14 q 325 -20 312 -20 q 298 -20 285 -9 q 272 3 259 23 q 246 42 233 69 q 221 95 208 124 q 191 99 171 70 q 150 40 127 5 q 121 4 110 2 q 100 1 87 -1 q 74 -3 60 -6 q 45 -9 32 -11 q 20 -14 9 -16 q -2 -19 -8 -20 l -24 2 q -3 21 23 44 q 49 67 76 93 q 104 118 130 145 q 157 171 179 196 q 166 229 154 260 q 141 290 129 313 q 117 337 106 351 q 94 365 83 365 q 79 365 69 363 q 59 361 47 358 q 35 355 20 352 l 8 391 q 29 401 52 413 q 76 425 98 435 q 120 444 137 451 q 155 457 164 457 q 176 457 189 443 q 203 429 216 405 q 229 382 243 351 q 256 321 270 288 q 284 306 296 323 q 308 339 316 352 q 324 364 329 373 q 333 382 333 385 q 333 395 321 399 q 308 404 276 400 l 273 440 q 290 443 310 446 q 330 449 350 452 q 371 454 389 456 q 407 457 418 457 q 449 457 462 449 q 475 441 475 431 q 475 413 430 362 q 385 311 297 222 q 309 192 321 166 q 333 140 344 120 q 354 100 365 88 q 375 76 385 76 q 396 76 414 80 q 431 83 449 92 z"},")":{"x_min":0,"x_max":313,"ha":313,"o":"m 273 312 q 262 231 235 160 q 208 88 169 28 q 130 -32 80 -78 q 30 -125 -28 -154 l -49 -112 q -17 -84 12 -47 q 41 -9 65 42 q 89 92 107 155 q 125 218 136 296 q 146 368 149 432 q 151 496 144 552 q 136 608 118 656 q 101 703 71 742 l 104 783 q 153 752 190 704 q 227 655 249 594 q 271 533 278 461 q 284 389 273 312 z"},"&":{"x_min":0,"x_max":648,"ha":648,"o":"m 684 365 q 677 358 669 348 q 661 338 652 328 q 644 318 635 310 q 627 302 621 297 q 605 306 588 313 q 571 321 555 322 q 563 310 564 295 q 564 280 562 265 q 558 233 540 198 q 521 162 492 128 q 499 121 505 114 q 511 107 518 101 q 540 78 566 72 q 592 67 614 72 l 617 32 q 596 22 572 14 q 548 5 526 -1 q 504 -7 488 -11 q 471 -15 466 -15 q 455 -15 434 -1 q 414 13 388 38 q 349 14 305 0 q 261 -15 215 -15 q 116 -15 68 32 q 21 80 33 172 q 40 222 76 272 q 112 323 184 375 q 173 413 169 450 q 166 488 170 524 q 176 563 195 597 q 215 631 244 656 q 272 680 309 694 q 345 708 384 708 q 420 708 445 698 q 470 688 485 671 q 500 655 505 633 q 510 611 507 588 q 503 562 486 535 q 469 508 444 482 q 419 457 389 433 q 359 410 330 392 l 322 386 q 344 333 377 281 q 410 229 445 184 q 454 199 460 215 q 466 230 468 245 q 471 266 468 281 q 464 297 456 308 q 448 318 437 324 q 425 330 412 330 l 400 348 l 409 357 q 415 363 422 369 q 429 375 436 381 q 443 386 448 388 l 672 388 z m 257 61 q 279 61 301 67 q 323 74 344 86 q 309 128 274 181 q 239 235 213 294 q 191 267 181 240 q 171 213 167 182 q 162 148 169 125 q 175 102 189 87 q 202 73 220 67 q 239 61 257 61 z m 291 552 q 288 527 290 501 q 293 475 300 448 q 320 460 335 475 q 349 491 359 507 q 369 523 375 540 q 380 557 382 572 q 385 589 383 602 q 380 615 375 624 q 370 632 362 637 q 354 641 346 641 q 334 641 326 634 q 317 627 310 615 q 303 604 299 587 q 294 571 291 552 z"},"_":{"x_min":0,"x_max":454,"ha":454,"o":"m 396 -81 q 395 -86 391 -94 q 387 -103 382 -111 q 378 -120 374 -127 q 370 -135 367 -140 l 1 -140 l -11 -122 q -10 -117 -6 -109 q -2 -102 2 -93 q 6 -84 11 -77 q 16 -69 19 -64 l 382 -64 z"},"v":{"x_min":0,"x_max":487,"ha":487,"o":"m 487 416 q 487 400 476 374 q 465 347 439 301 q 414 256 373 189 q 332 122 271 25 q 267 23 254 17 q 241 10 226 3 q 211 -5 198 -11 q 184 -18 179 -20 l 159 0 q 155 27 150 58 q 145 88 139 118 q 134 149 128 179 q 122 208 116 235 q 110 261 104 283 q 99 305 95 320 q 91 333 86 341 q 82 349 77 353 q 73 357 68 359 q 64 360 60 360 q 55 360 47 358 q 39 356 31 354 q 22 352 12 348 l -2 386 q 19 396 44 409 q 69 421 92 432 q 116 443 135 450 q 153 457 161 457 q 175 457 185 443 q 194 429 205 395 q 209 382 214 360 q 220 337 225 309 q 231 282 237 252 q 242 223 247 197 q 251 172 254 153 q 257 134 258 128 q 291 179 309 217 q 328 254 337 280 q 347 306 349 320 q 351 335 351 340 q 351 354 345 359 q 339 365 326 365 q 317 365 310 364 q 302 362 292 358 l 280 395 q 296 403 319 415 q 343 426 367 435 q 391 445 413 451 q 435 458 446 457 q 455 457 462 455 q 470 453 475 448 q 481 443 484 435 q 487 428 487 416 z"},"O":{"x_min":0,"x_max":582,"ha":582,"o":"m 445 369 q 445 410 437 446 q 430 481 415 508 q 400 534 378 549 q 356 564 328 564 q 301 564 278 550 q 256 536 238 512 q 220 489 207 458 q 193 427 185 393 q 176 359 171 325 q 167 291 167 260 q 167 214 174 176 q 182 138 196 111 q 210 84 232 69 q 253 54 281 54 q 310 54 333 68 q 357 83 375 108 q 393 133 406 165 q 419 197 428 232 q 437 267 441 303 q 445 338 445 369 z m 576 378 q 576 343 569 308 q 562 272 550 237 q 537 203 519 170 q 501 138 479 110 q 458 83 432 61 q 406 38 376 21 q 347 4 314 -5 q 282 -15 250 -15 q 199 -15 159 5 q 119 25 91 59 q 63 94 49 140 q 34 186 34 237 q 34 313 58 378 q 82 443 121 497 q 142 524 167 549 q 192 573 223 591 q 253 609 288 619 q 324 630 364 630 q 417 630 457 610 q 497 590 523 555 q 550 521 563 475 q 576 429 576 378 z"},"(":{"x_min":0,"x_max":313,"ha":313,"o":"m 372 742 q 340 714 311 676 q 282 638 258 588 q 234 538 216 474 q 197 411 187 333 q 176 262 174 198 q 172 134 179 78 q 187 21 204 -26 q 222 -74 252 -112 l 219 -154 q 170 -123 133 -74 q 96 -26 74 35 q 52 97 45 168 q 39 240 50 318 q 61 398 88 470 q 114 542 153 601 q 192 661 242 708 q 292 754 351 783 z"},"C":{"x_min":0,"x_max":515,"ha":515,"o":"m 535 581 q 536 580 533 571 q 530 563 524 551 q 518 539 510 525 q 503 511 495 499 q 487 486 480 476 q 474 466 469 462 l 435 471 q 430 488 421 504 q 412 521 400 533 q 387 546 371 553 q 355 561 335 561 q 315 561 300 557 q 284 552 264 537 q 233 513 213 477 q 193 441 181 401 q 169 361 165 322 q 160 283 160 252 q 160 199 173 164 q 187 129 207 109 q 227 88 250 80 q 274 72 294 71 q 306 71 322 74 q 337 76 357 83 q 377 91 402 104 q 427 118 458 140 q 460 139 463 133 q 466 128 469 122 q 472 115 474 110 q 476 104 477 103 q 444 70 411 48 q 378 26 347 12 q 316 -1 289 -7 q 261 -13 238 -13 q 194 -13 155 3 q 117 19 88 49 q 60 79 44 123 q 27 167 27 224 q 27 270 37 318 q 47 365 67 410 q 87 456 117 496 q 148 537 189 570 q 207 583 229 595 q 251 606 276 614 q 300 622 325 626 q 350 630 373 630 q 396 630 421 626 q 445 622 467 615 q 489 609 507 600 q 524 591 535 581 z"},"W":{"x_min":0,"x_max":783,"ha":783,"o":"m 835 575 q 814 570 800 566 q 787 562 779 559 q 771 555 767 552 q 763 548 762 544 l 587 29 q 584 19 575 11 q 565 3 554 -2 q 543 -7 532 -10 q 521 -13 513 -15 l 415 417 l 232 29 q 228 19 218 11 q 208 4 197 -1 q 186 -6 174 -10 q 162 -13 153 -15 l 111 541 q 110 553 97 561 q 84 568 53 575 l 59 615 l 290 615 l 284 575 q 262 572 249 569 q 236 565 230 561 q 224 556 223 551 q 222 546 222 541 l 250 210 l 434 615 l 486 615 l 580 210 l 694 544 q 696 550 692 555 q 688 559 678 562 q 669 566 657 569 q 644 572 629 575 l 634 615 l 840 615 z"},"A":{"x_min":0,"x_max":591,"ha":591,"o":"m 181 207 l 122 74 q 115 59 129 52 q 144 45 180 41 l 175 0 l -27 0 l -21 41 q 10 46 27 53 q 44 59 50 74 l 275 584 q 290 596 305 605 q 321 614 338 621 q 354 628 370 634 q 386 639 400 643 l 513 74 q 514 67 517 62 q 520 56 525 52 q 530 48 540 45 q 549 42 563 41 l 558 0 l 321 0 l 326 41 q 362 43 375 50 q 389 58 386 74 l 360 207 z m 348 271 l 304 490 l 209 271 z"},"f":{"x_min":0,"x_max":336,"ha":336,"o":"m 514 680 q 507 675 497 667 q 486 658 474 649 q 462 639 450 629 q 437 619 426 611 q 415 604 406 598 q 398 593 394 593 q 386 593 378 603 q 370 612 361 623 q 352 634 342 644 q 333 653 320 653 q 302 653 289 635 q 276 617 268 590 q 259 562 254 529 q 249 496 246 465 l 243 442 l 363 442 l 377 423 q 373 417 363 406 q 353 396 342 386 q 331 375 321 367 q 311 359 306 356 q 300 370 285 374 q 270 378 241 378 l 235 378 l 203 94 q 196 41 173 -10 q 150 -60 118 -103 q 85 -146 48 -180 q 10 -215 -26 -237 l -49 -191 q -24 -178 -5 -151 q 15 -124 30 -88 q 45 -53 55 -13 q 64 28 69 68 l 104 378 l 38 378 l 26 398 l 95 442 l 112 442 q 117 481 126 517 q 136 553 152 585 q 167 618 190 646 q 213 674 244 697 q 270 716 299 729 q 328 742 358 742 q 383 742 408 733 q 433 725 454 714 q 475 703 491 693 q 507 683 514 680 z"},"Q":{"x_min":0,"x_max":596,"ha":596,"o":"m 445 369 q 445 410 437 446 q 430 481 415 508 q 400 534 378 549 q 356 564 328 564 q 301 564 278 550 q 256 536 238 512 q 220 489 207 458 q 193 427 185 393 q 176 359 171 325 q 167 291 167 260 q 167 214 174 176 q 182 138 196 111 q 210 84 232 69 q 253 54 281 54 q 310 54 333 68 q 357 83 375 108 q 393 133 406 165 q 419 197 428 232 q 437 267 441 303 q 445 338 445 369 z m 636 -62 q 622 -83 607 -102 q 591 -120 577 -134 q 562 -148 550 -156 q 538 -164 531 -164 q 509 -164 488 -156 q 467 -148 446 -135 q 425 -123 405 -106 q 384 -90 364 -73 q 343 -56 323 -40 q 302 -24 281 -13 q 273 -14 265 -14 q 258 -15 250 -15 q 199 -15 159 5 q 119 25 91 59 q 63 94 49 140 q 34 186 34 237 q 34 313 58 378 q 82 443 121 497 q 142 524 167 549 q 192 573 223 591 q 253 609 288 619 q 324 630 364 630 q 417 630 457 610 q 497 590 523 555 q 550 521 563 475 q 576 429 576 378 q 576 343 569 308 q 562 272 550 237 q 537 203 519 170 q 501 138 479 110 q 457 82 428 57 q 399 33 367 16 q 393 6 417 -6 q 440 -19 462 -31 q 484 -42 505 -51 q 526 -59 548 -59 q 554 -59 559 -57 q 564 -56 572 -53 q 579 -49 589 -43 q 600 -36 615 -25 z"},"w":{"x_min":0,"x_max":693,"ha":693,"o":"m 697 420 q 697 407 694 392 q 690 376 681 355 q 673 334 659 306 q 645 278 623 239 q 602 200 573 148 q 545 96 507 28 q 504 27 497 23 q 490 20 481 15 q 472 10 462 4 q 452 -1 442 -6 q 433 -11 425 -15 l 415 -20 l 394 0 q 383 83 373 148 q 362 213 350 259 q 338 223 314 168 q 290 113 246 34 q 243 33 236 29 q 228 24 218 19 q 208 13 196 7 q 184 1 174 -5 q 164 -10 156 -14 q 147 -19 144 -20 l 124 0 q 121 28 117 60 q 114 92 111 125 q 107 158 104 190 q 100 222 97 248 q 94 274 92 293 q 89 312 87 320 q 84 333 80 341 q 76 349 71 353 q 66 357 62 359 q 57 360 52 360 q 48 360 40 358 q 32 356 24 354 q 15 352 4 348 l -8 386 q 13 397 39 410 q 64 422 88 433 q 112 443 131 450 q 150 457 158 457 q 172 457 179 441 q 186 425 194 390 q 196 381 199 362 q 202 343 205 320 q 208 296 211 270 q 214 243 217 219 q 220 194 222 173 q 224 153 225 141 q 244 179 260 216 q 276 253 288 287 q 300 320 306 347 q 313 375 314 393 q 325 403 340 414 q 355 425 371 435 q 386 444 400 451 q 414 457 422 457 q 424 457 427 449 q 431 441 435 428 q 438 415 443 397 q 447 380 451 362 q 456 344 459 326 q 463 308 465 293 q 473 247 480 206 q 487 166 490 135 q 512 173 530 207 q 548 241 562 268 q 575 295 582 317 q 589 338 589 351 q 589 361 582 367 q 575 373 562 373 q 556 373 543 371 q 531 369 521 366 l 507 403 q 525 415 546 425 q 567 435 588 442 q 608 449 626 453 q 644 457 656 457 q 665 457 672 456 q 679 455 685 451 q 690 447 694 439 q 697 432 697 420 z"},"-":{"x_min":0,"x_max":337,"ha":337,"o":""},"E":{"x_min":0,"x_max":503,"ha":503,"o":"m 477 158 q 473 137 467 113 q 461 88 455 65 q 450 42 445 25 q 440 7 437 0 l -5 0 l 0 41 q 32 47 49 55 q 65 63 66 70 l 131 544 q 132 550 119 559 q 105 568 74 575 l 79 615 l 491 615 l 508 598 q 505 585 501 565 q 496 544 490 523 q 485 501 479 482 q 474 463 470 454 l 431 454 q 435 500 429 526 q 424 552 407 552 l 259 552 l 232 359 l 412 359 l 426 340 q 421 333 415 324 q 408 314 401 304 q 394 294 387 286 q 380 277 375 273 q 369 281 362 286 q 354 291 345 294 q 335 297 321 299 q 308 300 289 300 l 224 300 l 196 95 q 195 87 198 82 q 200 76 209 72 q 219 68 237 66 q 254 63 285 63 l 325 63 q 346 63 362 70 q 377 76 391 89 q 404 102 416 123 q 428 143 441 172 z"},"s":{"x_min":0,"x_max":396,"ha":396,"o":"m 399 412 q 392 401 381 386 q 370 372 359 359 q 348 346 338 337 q 328 328 323 328 q 314 328 304 338 q 294 349 281 362 q 268 375 253 386 q 238 396 220 396 q 192 396 181 384 q 170 372 170 351 q 170 339 175 329 q 181 319 191 310 q 202 301 217 292 q 232 283 252 273 q 272 263 291 250 q 311 238 325 222 q 340 207 350 187 q 359 167 359 141 q 359 119 349 98 q 339 77 322 59 q 305 42 282 27 q 260 12 236 2 q 212 -9 188 -14 q 164 -20 143 -20 q 109 -20 81 -12 q 52 -3 32 9 q 11 21 0 34 q -12 47 -12 58 q -12 65 -4 81 q 3 98 13 115 q 23 132 33 145 q 42 158 48 158 q 52 158 58 149 q 63 141 70 129 q 77 117 86 102 q 95 87 108 75 q 120 63 136 55 q 151 46 172 46 q 203 46 219 62 q 236 78 236 104 q 236 120 228 134 q 219 148 205 160 q 191 172 173 183 q 155 193 137 203 q 111 216 94 230 q 78 244 68 259 q 58 273 54 288 q 50 303 50 319 q 50 350 69 375 q 88 400 117 419 q 146 437 180 447 q 215 457 246 457 q 272 457 293 451 q 314 445 333 437 q 351 430 367 422 q 383 415 399 412 z"},">":{"x_min":0,"x_max":439,"ha":439,"o":"m 406 312 q 403 305 400 296 q 396 288 393 279 q 389 271 385 262 q 382 254 379 249 l 25 115 l 12 132 q 14 137 17 147 q 21 156 25 167 q 29 177 33 186 q 37 195 39 200 l 278 290 l 58 381 l 49 404 q 55 409 62 415 q 68 422 76 429 q 83 436 91 442 q 99 448 106 453 l 393 333 z"},"l":{"x_min":0,"x_max":278,"ha":278,"o":"m 266 60 q 242 44 215 30 q 188 16 163 5 q 138 -6 115 -13 q 93 -20 77 -20 q 63 -20 52 -5 q 42 9 42 38 q 42 50 45 78 q 48 105 54 143 q 60 181 67 226 q 74 271 81 318 q 88 365 95 412 q 103 458 108 498 q 114 538 117 570 q 121 601 121 618 q 121 629 118 636 q 116 643 113 646 q 109 649 105 650 q 100 651 96 651 q 92 651 84 649 q 77 646 69 644 l 50 638 l 40 676 q 54 682 72 689 q 89 697 108 704 q 127 711 147 718 q 166 725 183 730 q 200 736 213 739 q 226 742 232 742 q 246 742 254 733 q 262 725 262 702 q 262 683 259 651 q 255 620 250 580 q 244 540 237 494 q 229 448 222 402 q 215 355 208 310 q 200 265 195 226 q 189 187 186 157 q 182 126 182 110 q 182 93 187 87 q 191 81 199 81 q 210 81 223 85 q 236 89 257 97 z"},"8":{"x_min":0,"x_max":473,"ha":473,"o":"m 204 459 q 204 442 210 429 q 216 417 226 406 q 237 396 251 387 q 265 379 281 371 q 300 391 314 416 q 329 441 329 476 q 329 508 314 525 q 299 542 271 542 q 257 542 245 535 q 233 528 224 516 q 214 504 209 489 q 204 474 204 459 z m 304 167 q 304 190 297 208 q 291 225 279 238 q 268 251 252 261 q 237 271 221 280 q 206 265 193 249 q 180 232 171 214 q 161 196 156 176 q 150 156 150 134 q 150 113 156 97 q 162 81 171 70 q 180 60 192 54 q 204 49 217 49 q 236 49 252 59 q 269 69 280 86 q 291 103 297 124 q 304 145 304 167 z m 456 489 q 456 464 445 443 q 434 422 417 405 q 400 387 379 372 q 358 356 337 344 q 356 333 375 320 q 393 307 407 290 q 421 272 429 249 q 438 225 438 194 q 438 152 417 115 q 397 77 365 48 q 332 19 289 2 q 246 -15 201 -15 q 152 -15 117 -4 q 83 7 60 26 q 38 45 27 70 q 16 95 16 122 q 16 153 29 180 q 42 208 63 231 q 84 254 111 273 q 138 292 167 307 q 150 316 135 327 q 119 338 108 353 q 96 368 89 387 q 83 407 83 434 q 83 470 100 501 q 118 532 147 554 q 177 577 217 590 q 256 603 300 603 q 341 603 371 594 q 400 586 419 571 q 438 556 447 535 q 456 514 456 489 z"},"\\":{"x_min":0,"x_max":424,"ha":424,"o":"m 340 -164 q 335 -162 322 -158 q 310 -153 296 -148 q 282 -143 270 -138 q 258 -133 254 -129 l 66 765 l 89 781 q 96 779 108 775 q 120 771 133 766 q 146 762 157 757 q 169 751 175 747 l 362 -147 z"},"e":{"x_min":0,"x_max":432,"ha":432,"o":"m 415 371 q 415 358 412 343 q 409 327 399 310 q 390 293 372 275 q 354 256 325 237 q 296 217 253 197 q 211 176 152 155 q 159 111 177 86 q 195 62 218 62 q 239 62 280 83 q 320 104 379 152 q 382 150 386 145 q 390 139 393 133 q 397 126 400 120 l 404 112 q 364 78 331 52 q 297 27 269 11 q 241 -5 216 -12 q 191 -20 168 -20 q 147 -20 121 -11 q 95 -2 73 18 q 51 38 36 70 q 21 102 21 148 q 21 186 30 220 q 40 255 57 286 q 74 317 98 345 q 122 373 152 398 q 163 408 180 418 q 196 428 216 437 q 236 446 257 451 q 278 457 299 457 q 329 457 351 449 q 373 442 387 430 q 401 417 408 402 q 415 387 415 371 z m 196 353 q 185 338 177 324 q 169 310 163 293 q 157 277 154 259 q 150 240 149 218 q 192 238 218 255 q 244 271 257 286 q 271 300 274 314 q 278 329 278 344 q 278 364 270 375 q 261 386 248 386 q 244 386 238 384 q 231 381 224 377 q 217 373 209 366 q 202 360 196 353 z"},"b":{"x_min":0,"x_max":508,"ha":508,"o":"m 307 363 q 301 363 291 358 q 281 353 267 340 q 253 327 236 306 q 219 285 198 252 q 194 220 191 194 q 188 169 188 154 q 188 142 196 129 q 203 116 214 105 q 225 95 236 88 q 248 82 256 81 q 276 80 292 89 q 307 99 319 117 q 328 130 335 148 q 342 166 346 185 q 351 204 353 223 q 354 242 354 259 q 354 281 352 300 q 349 319 343 333 q 336 347 328 355 q 319 363 307 363 z m 483 298 q 482 246 459 193 q 436 140 399 92 q 382 70 360 50 q 338 29 313 14 q 287 -1 258 -11 q 229 -20 199 -20 q 188 -20 172 -15 q 157 -9 141 0 q 125 9 110 22 q 94 36 82 51 q 70 67 62 84 q 54 102 54 121 q 54 133 57 158 q 60 184 64 216 q 69 249 75 287 q 81 326 87 365 q 93 405 99 444 q 105 482 110 516 q 115 550 118 577 q 121 603 121 618 q 121 629 118 636 q 116 643 112 646 q 108 649 104 650 q 99 651 95 651 q 90 651 83 649 q 75 646 68 644 q 60 641 51 638 l 42 676 q 64 687 94 699 q 123 710 150 720 q 178 730 201 736 q 224 742 233 742 q 250 742 256 733 q 262 725 262 702 q 262 682 258 645 q 253 609 247 563 q 240 518 232 467 q 224 416 216 366 q 240 395 261 413 q 282 431 301 440 q 319 450 335 454 q 352 457 365 457 q 390 458 411 447 q 433 437 449 416 q 465 396 475 366 q 484 336 483 298 z"},"%":{"x_min":0,"x_max":689,"ha":689,"o":"m 552 208 q 552 229 549 243 q 546 257 542 266 q 537 275 531 279 q 524 283 517 283 q 502 283 491 272 q 480 261 472 244 q 464 228 459 206 q 454 185 451 164 q 448 143 447 124 q 445 105 445 93 q 445 55 454 38 q 462 21 482 21 q 500 21 513 39 q 526 58 535 86 q 543 115 548 147 q 552 180 552 208 z m 653 199 q 653 161 641 122 q 629 84 605 53 q 582 22 546 3 q 511 -16 464 -16 q 437 -16 414 -6 q 391 4 375 21 q 358 37 349 59 q 339 81 339 104 q 339 143 352 181 q 365 220 390 250 q 415 280 451 299 q 487 318 534 318 q 559 318 581 310 q 603 302 619 286 q 635 271 644 249 q 653 227 653 199 z m 133 1 q 127 -1 118 -4 q 108 -6 98 -8 q 87 -10 77 -11 q 67 -13 61 -15 l 52 0 l 555 587 q 560 589 570 592 q 579 594 590 596 q 601 598 610 600 q 620 602 625 603 l 635 589 z m 246 495 q 246 515 243 530 q 241 544 236 553 q 231 562 225 565 q 218 569 211 569 q 196 569 185 559 q 174 548 167 531 q 159 514 154 493 q 148 472 145 451 q 142 430 141 411 q 140 392 140 379 q 140 341 148 324 q 156 307 177 307 q 194 307 207 326 q 220 345 229 373 q 238 401 242 434 q 246 467 246 495 z m 348 486 q 348 447 335 409 q 323 371 300 340 q 276 309 240 290 q 205 271 159 271 q 131 271 108 281 q 85 291 69 307 q 52 324 43 345 q 34 367 34 391 q 34 429 46 468 q 59 506 84 537 q 109 567 145 586 q 181 605 228 605 q 253 605 275 597 q 297 588 313 573 q 329 558 338 536 q 348 514 348 486 z"},"m":{"x_min":0,"x_max":777,"ha":777,"o":"m 756 60 q 733 46 707 32 q 681 18 656 7 q 631 -5 610 -12 q 588 -20 574 -20 q 566 -20 560 -16 q 553 -12 547 -5 q 542 3 538 13 q 535 24 535 37 q 535 46 538 65 q 541 84 545 109 q 550 134 555 163 q 560 192 565 219 q 569 247 572 271 q 575 296 575 312 q 575 331 570 340 q 565 349 557 349 q 553 349 545 347 q 538 345 527 339 q 517 333 505 322 q 493 311 481 293 q 473 281 466 268 q 460 254 455 236 q 449 219 445 196 q 440 173 436 144 q 430 100 428 74 q 426 48 427 37 q 423 34 413 30 q 403 25 390 20 q 378 14 364 8 q 350 2 338 -3 q 325 -9 315 -13 q 306 -18 301 -20 l 281 0 q 292 50 301 98 q 310 146 317 188 q 324 230 328 262 q 332 294 332 312 q 332 349 312 349 q 310 349 302 347 q 295 345 285 339 q 275 333 262 322 q 250 312 237 294 q 229 282 222 268 q 215 254 210 236 q 204 218 199 195 q 195 172 190 144 q 184 100 181 74 q 178 48 179 37 q 175 34 165 30 q 156 25 143 20 q 131 14 117 8 q 104 2 91 -3 q 79 -9 69 -13 q 60 -18 56 -20 l 35 0 q 45 52 54 102 q 63 152 70 197 q 77 241 81 276 q 85 311 85 332 q 85 343 83 350 q 82 356 79 360 q 77 364 73 365 q 70 366 66 366 q 61 366 53 364 q 45 362 38 359 l 19 353 l 10 392 q 24 397 41 405 q 59 412 77 419 q 95 426 114 433 q 132 440 148 445 q 164 451 177 454 q 189 457 195 457 q 203 457 208 455 q 213 452 216 446 q 219 440 221 429 q 222 418 222 401 q 222 394 221 383 q 220 371 219 360 q 248 389 272 408 q 297 427 320 438 q 342 449 362 453 q 382 457 402 457 q 420 457 433 450 q 446 444 455 433 q 463 421 467 407 q 470 392 470 376 l 470 372 q 470 369 470 365 q 498 392 521 410 q 545 428 565 438 q 586 449 604 453 q 623 457 641 457 q 655 457 668 452 q 681 448 691 438 q 700 427 706 411 q 711 395 711 371 q 711 343 706 307 q 700 270 692 233 q 685 196 679 163 q 673 130 673 110 q 673 93 678 88 q 683 82 691 82 q 706 82 717 86 q 729 89 749 97 z"},"#":{"x_min":0,"x_max":473,"ha":473,"o":"m 422 479 l 492 479 l 502 467 q 500 461 496 452 q 492 443 487 434 q 482 424 477 416 q 473 407 470 403 l 391 403 l 349 298 l 419 298 l 427 285 q 426 280 422 271 q 418 262 413 253 q 408 243 404 235 q 399 227 397 222 l 318 222 l 262 83 q 258 80 250 77 q 242 74 233 71 q 224 69 215 66 q 206 64 200 62 l 189 72 l 250 222 l 173 222 l 117 83 q 112 80 104 77 q 96 74 87 71 l 70 66 q 61 64 55 62 l 44 72 l 105 222 l 27 222 l 18 234 q 20 239 24 248 q 28 256 33 266 q 38 275 42 284 q 47 293 50 298 l 135 298 l 178 403 l 101 403 l 91 415 q 93 420 97 429 q 102 438 106 448 q 111 457 116 466 q 121 474 123 479 l 208 479 l 261 611 q 267 615 275 617 q 283 620 292 622 l 309 626 q 316 628 322 631 l 333 620 l 276 479 l 353 479 l 406 611 q 412 615 420 617 q 428 620 437 622 q 445 625 454 626 q 462 628 467 631 l 479 620 z m 203 298 l 280 298 l 323 403 l 246 403 z"},",":{"x_min":0,"x_max":244,"ha":244,"o":"m 195 60 q 195 37 187 12 q 179 -12 166 -37 q 153 -62 136 -85 q 119 -108 100 -129 q 82 -150 62 -166 q 43 -183 26 -193 l -5 -166 q 14 -146 28 -126 q 42 -105 51 -86 q 61 -66 65 -48 q 70 -30 70 -15 q 70 -6 66 3 q 63 13 56 20 q 49 27 39 32 q 29 36 15 35 l 13 78 q 19 83 30 88 q 41 94 55 100 q 68 106 83 112 q 99 117 113 122 q 127 126 139 129 q 151 131 159 131 q 176 122 186 106 q 195 90 195 60 z"},"n":{"x_min":0,"x_max":539,"ha":539,"o":"m 529 60 q 507 46 481 32 q 455 18 430 7 q 405 -5 383 -12 q 361 -20 348 -20 q 331 -20 319 -5 q 307 11 307 37 q 307 46 310 66 q 313 86 317 112 q 322 138 327 167 q 332 195 336 222 q 340 249 343 270 q 346 292 346 303 q 346 329 342 339 q 338 350 324 350 q 317 350 307 347 q 297 344 285 336 q 272 329 259 316 q 246 303 233 283 q 218 260 210 227 q 202 194 194 147 q 190 125 188 109 q 185 93 184 81 q 183 68 182 58 q 182 47 183 37 q 178 34 169 30 q 159 25 147 20 q 134 14 121 8 q 107 2 94 -3 q 82 -9 73 -13 q 63 -18 59 -20 l 38 0 q 48 49 57 100 q 66 152 73 198 q 81 244 85 280 q 89 316 89 333 q 89 344 88 351 q 86 357 84 361 q 82 364 78 365 q 75 366 70 366 q 66 366 58 364 q 50 362 42 359 q 34 356 23 353 l 13 392 q 27 397 45 405 q 62 412 82 419 q 101 426 120 433 q 139 440 155 445 q 171 451 183 454 q 195 457 201 457 q 208 457 212 455 q 217 453 219 447 q 222 441 223 430 q 225 419 225 402 q 225 392 224 382 q 224 373 222 360 q 275 409 327 433 q 378 457 422 457 q 437 457 449 454 q 461 451 470 443 q 479 435 483 420 q 487 405 487 382 q 487 365 484 342 q 481 319 477 293 q 472 268 467 241 q 461 214 457 189 q 452 165 449 144 q 446 124 446 110 q 446 93 451 87 q 455 81 464 81 q 470 81 475 82 q 479 83 485 85 q 490 87 497 90 q 504 93 515 97 z"},"h":{"x_min":0,"x_max":536,"ha":536,"o":"m 524 60 q 502 46 476 32 q 449 18 424 7 q 398 -5 375 -12 q 353 -20 338 -20 q 324 -20 313 -5 q 301 11 301 37 q 301 46 304 66 q 307 86 311 112 q 315 138 320 167 q 325 195 329 222 q 333 249 336 270 q 339 292 339 303 q 339 317 338 327 q 336 336 334 341 q 332 346 327 348 q 323 350 318 350 q 312 350 302 347 q 292 345 279 337 q 267 330 253 317 q 240 305 228 284 q 213 261 204 226 q 195 191 188 147 q 184 120 181 102 q 179 84 178 72 q 177 60 177 52 q 176 43 177 37 q 172 34 163 30 q 153 25 141 20 q 128 14 115 8 q 101 2 89 -3 q 76 -9 67 -13 q 57 -18 53 -20 l 32 0 q 37 26 43 63 q 49 100 56 144 q 63 188 71 235 q 79 283 86 330 q 94 378 100 423 q 107 468 112 506 q 117 544 120 573 q 123 603 123 618 q 123 629 121 636 q 119 643 116 646 q 114 649 110 650 q 106 651 103 651 q 98 651 89 649 q 81 646 72 644 q 62 641 51 638 l 43 676 q 57 682 74 689 q 91 697 110 704 q 129 711 147 718 q 166 725 182 730 q 199 736 211 739 q 224 742 231 742 q 245 742 255 733 q 265 725 265 702 q 265 690 262 666 q 259 641 255 609 q 250 577 245 541 q 239 504 234 470 q 229 436 224 407 q 219 378 216 360 q 273 412 323 435 q 373 457 416 457 q 431 457 443 454 q 456 451 464 443 q 472 434 477 419 q 481 404 481 381 q 481 364 478 341 q 475 318 471 292 q 466 267 461 240 q 456 213 451 189 q 447 165 444 144 q 441 124 441 110 q 441 93 445 87 q 449 81 458 81 q 465 81 471 82 q 476 83 482 85 q 488 87 494 90 l 510 97 z"},"z":{"x_min":0,"x_max":384,"ha":384,"o":"m 384 425 q 357 396 337 371 q 316 346 298 322 q 281 298 265 275 q 249 251 231 226 q 214 201 194 173 q 174 146 148 112 q 155 114 162 116 q 168 118 175 119 q 182 120 188 120 q 198 120 212 116 q 226 112 241 107 q 257 103 271 99 q 286 95 296 95 q 301 95 306 96 q 312 98 319 104 q 325 109 333 120 q 341 130 351 148 l 383 128 q 369 98 356 73 q 344 47 329 29 q 314 11 297 0 q 279 -10 255 -10 q 234 -10 214 -5 q 193 0 174 7 q 155 13 138 18 q 122 23 110 23 q 94 23 70 13 q 46 3 9 -15 l -11 12 q 26 56 60 104 q 95 152 126 197 q 157 242 184 280 q 210 319 232 344 l 131 344 q 119 344 110 341 q 102 338 94 331 q 86 323 79 310 q 73 297 65 276 l 30 285 q 34 307 40 333 q 46 358 52 383 q 58 407 62 427 q 66 447 68 457 q 73 456 80 454 q 87 453 95 451 q 104 449 113 448 q 122 447 131 447 l 369 447 z"},"B":{"x_min":0,"x_max":544,"ha":544,"o":"m 260 574 l 230 364 l 247 364 q 270 364 293 371 q 316 377 335 392 q 354 406 365 429 q 377 451 377 482 q 377 508 368 526 q 359 543 345 554 q 331 565 313 570 q 295 574 279 574 z m 272 307 q 262 307 255 307 q 248 306 242 305 q 236 304 231 303 q 227 302 222 301 l 189 70 q 188 66 197 59 q 213 51 230 48 q 248 45 267 45 q 295 45 316 56 q 337 66 352 85 q 366 103 373 128 q 380 153 380 183 q 380 208 375 230 q 370 252 357 270 q 345 287 324 297 q 303 307 272 307 z m 515 200 q 515 152 494 113 q 473 73 436 45 q 400 17 351 1 q 301 -15 245 -15 q 235 -15 220 -15 q 205 -14 188 -13 q 170 -12 151 -10 q 132 -9 114 -8 q 71 -4 22 0 l -5 0 l -2 41 q 29 47 45 55 q 61 63 62 70 l 131 566 q 112 564 95 561 q 79 558 64 554 l 64 599 q 86 605 114 611 q 141 617 172 621 q 202 625 235 627 q 268 630 302 630 q 409 630 460 597 q 512 565 512 508 q 512 457 480 416 q 448 375 384 353 q 413 350 437 336 q 461 323 478 302 q 495 282 505 256 q 515 229 515 200 z"},"K":{"x_min":0,"x_max":605,"ha":605,"o":"m 324 575 q 292 568 275 560 q 259 551 258 544 l 228 324 l 419 531 q 432 544 438 552 q 443 560 442 564 q 441 569 432 571 q 423 573 405 575 l 411 615 l 620 615 l 614 575 q 599 573 589 571 q 579 569 571 566 q 563 562 557 557 q 550 552 542 544 l 319 331 l 493 106 q 499 99 510 96 q 521 93 533 93 q 546 94 559 97 q 572 100 583 104 l 597 64 q 583 52 561 39 q 538 27 515 17 q 491 6 470 0 q 449 -7 438 -7 q 425 -7 415 -2 q 406 2 398 14 l 225 303 l 193 70 q 192 64 205 56 q 218 47 250 41 l 245 0 l -5 0 l 0 41 q 32 47 49 55 q 65 63 66 70 l 131 544 q 132 550 119 559 q 105 568 74 575 l 79 615 l 329 615 z"},"R":{"x_min":0,"x_max":570,"ha":570,"o":"m 580 58 q 561 45 537 34 q 513 22 491 13 q 468 4 451 -1 q 433 -7 427 -7 q 418 -7 410 -5 q 402 -2 394 4 q 386 11 378 24 q 370 36 362 57 l 282 282 q 268 282 253 283 q 237 285 224 288 l 194 70 q 193 64 208 56 q 224 47 254 41 l 249 0 l -5 0 l 0 41 q 31 47 47 55 q 63 63 64 70 l 131 562 q 112 559 95 556 q 78 553 63 549 l 64 599 q 86 605 114 611 q 143 617 174 621 q 206 625 240 627 q 274 630 307 630 q 416 630 474 590 q 531 550 531 474 q 531 449 521 423 q 510 396 490 372 q 469 348 440 328 q 412 308 376 296 l 481 109 q 488 98 495 93 q 502 87 512 86 q 522 85 535 88 q 548 91 566 96 z m 282 574 l 272 574 q 268 574 262 574 l 232 348 q 243 345 253 344 q 264 343 276 343 q 300 343 322 351 q 344 359 361 374 q 377 389 388 410 q 398 432 398 460 q 398 496 387 518 q 376 541 359 553 q 342 565 322 570 q 301 574 282 574 z"},"T":{"x_min":0,"x_max":548,"ha":548,"o":"m 382 0 l 115 0 l 121 41 q 142 45 156 50 q 170 55 179 59 q 188 64 191 68 q 195 72 195 76 l 260 552 l 152 552 q 145 552 138 546 q 131 540 123 527 q 114 514 104 493 q 93 473 79 444 l 43 458 q 46 473 51 494 q 57 516 62 538 q 68 561 74 582 q 80 603 84 615 l 579 615 l 595 598 q 593 585 588 566 q 584 547 578 526 l 567 485 q 562 464 557 449 l 518 449 q 517 472 516 491 q 516 510 514 523 q 512 537 508 544 q 503 552 494 552 l 388 552 l 323 76 q 322 73 325 69 q 327 64 334 60 q 342 55 354 50 q 367 45 388 41 z"},"P":{"x_min":0,"x_max":535,"ha":535,"o":"m 549 460 q 549 418 531 381 q 512 343 481 314 q 449 286 407 269 q 366 251 319 251 q 300 251 281 256 q 262 261 249 268 l 240 324 q 256 316 269 312 q 281 308 299 308 q 355 308 385 343 q 416 378 416 442 q 416 483 404 509 q 392 534 373 549 q 353 563 328 569 q 303 574 276 574 q 273 574 270 574 q 267 574 264 574 l 194 70 q 193 67 196 64 q 199 61 207 57 q 215 53 230 49 q 245 45 268 41 l 263 0 l -5 0 l 0 41 q 31 47 47 55 q 63 63 64 70 l 132 562 q 115 559 98 556 q 81 553 64 549 l 64 598 q 89 605 119 611 q 149 617 180 621 q 211 625 241 627 q 271 630 297 630 q 357 630 404 619 q 451 608 483 587 q 516 565 532 534 q 549 502 549 460 z"},"|":{"x_min":0,"x_max":220,"ha":220,"o":"m 97 -132 q 92 -135 83 -140 q 74 -145 64 -149 q 55 -154 45 -158 q 36 -162 30 -164 l 11 -147 l 138 750 q 145 754 154 759 q 162 763 171 768 q 180 772 188 775 q 197 779 204 781 l 224 765 z"},"t":{"x_min":0,"x_max":349,"ha":349,"o":"m 337 82 q 309 60 281 41 q 253 22 228 9 q 202 -5 181 -12 q 160 -20 145 -20 q 129 -20 113 -13 q 97 -5 84 8 q 71 21 63 39 q 55 57 55 78 q 55 87 55 97 q 55 106 56 116 q 57 126 58 137 q 59 148 62 162 l 96 378 l 31 378 l 19 398 l 81 442 l 106 442 l 109 459 q 112 479 115 490 q 118 500 122 507 q 126 513 131 516 q 136 520 143 524 l 250 574 l 264 562 q 260 558 256 546 q 252 537 248 519 q 244 500 239 470 l 234 442 l 352 442 l 366 423 q 361 417 352 406 q 342 396 331 386 q 320 375 311 367 q 301 359 297 356 q 291 370 274 374 q 256 378 227 378 l 225 378 l 199 218 q 198 208 197 198 q 195 188 195 178 q 194 168 194 160 q 193 152 193 147 q 193 117 202 105 q 210 93 224 93 q 241 93 263 100 q 286 107 322 124 z"},"M":{"x_min":0,"x_max":800,"ha":800,"o":"m 813 575 q 790 575 754 562 l 691 70 q 690 64 706 56 q 721 47 753 41 l 748 0 l 501 0 l 507 41 q 538 47 557 55 q 576 63 577 70 l 625 450 l 373 0 l 323 0 l 199 450 l 143 70 q 142 64 155 56 q 168 47 200 41 l 195 0 l 3 0 l 8 41 q 41 47 57 55 q 73 63 74 70 l 145 559 q 131 568 115 571 q 100 575 86 575 l 92 615 l 258 615 q 262 615 266 614 q 270 612 273 608 q 276 604 279 595 q 282 587 286 574 l 395 178 l 618 574 q 625 589 631 597 q 636 605 641 609 q 645 613 649 614 q 652 615 657 615 l 818 615 z"},"g":{"x_min":0,"x_max":477,"ha":477,"o":"m 180 86 q 185 86 193 89 q 202 93 215 104 q 229 116 247 138 q 266 160 291 197 q 292 226 295 258 q 298 290 304 328 q 306 336 309 345 q 293 359 278 370 q 263 381 250 381 q 230 381 214 372 q 198 363 185 347 q 173 332 164 312 q 154 292 148 270 q 143 249 140 226 q 137 204 137 185 q 137 133 149 109 q 161 86 180 86 z m 471 420 q 455 407 445 387 q 436 367 431 332 q 424 273 422 229 q 419 184 417 146 q 415 107 412 73 q 409 38 402 0 q 396 -33 381 -64 q 366 -96 344 -123 q 323 -150 297 -173 q 271 -195 242 -211 q 214 -227 186 -235 q 158 -244 132 -244 q 106 -244 81 -239 q 55 -234 34 -226 q 14 -218 1 -208 q -12 -199 -12 -190 q -12 -185 -7 -176 q -2 -167 5 -157 q 12 -147 21 -137 q 30 -127 38 -119 q 46 -111 53 -106 q 59 -101 61 -101 q 67 -101 76 -108 q 85 -116 99 -126 q 113 -135 132 -143 q 152 -151 179 -151 q 195 -151 210 -146 q 224 -142 236 -128 q 248 -114 258 -89 q 267 -64 274 -23 q 280 13 283 43 q 286 73 287 102 q 246 45 207 12 q 167 -20 125 -20 q 109 -20 89 -11 q 69 -1 52 19 q 34 39 22 71 q 10 103 10 149 q 10 227 48 295 q 85 363 158 411 q 185 429 223 443 q 260 457 309 457 q 326 457 347 447 q 368 437 388 424 q 406 435 423 443 q 439 451 452 457 z"},"j":{"x_min":0,"x_max":286,"ha":286,"o":"m 234 425 q 234 419 233 406 q 232 393 230 375 q 228 356 226 336 q 224 315 221 295 q 219 275 217 259 q 215 242 214 231 q 210 197 206 153 q 201 108 191 47 q 185 1 168 -37 q 152 -75 131 -105 q 110 -136 88 -159 q 65 -182 45 -197 q 18 -218 -15 -231 q -47 -244 -80 -244 q -103 -244 -123 -238 q -144 -231 -160 -223 q -176 -215 -186 -206 q -195 -197 -195 -192 q -195 -188 -191 -180 q -187 -171 -179 -162 q -172 -152 -164 -141 q -155 -131 -147 -122 q -139 -114 -132 -108 q -125 -103 -122 -103 q -116 -103 -106 -111 q -97 -119 -84 -128 q -72 -137 -57 -145 q -42 -153 -26 -153 q -7 -153 5 -145 q 17 -138 25 -119 q 33 -101 39 -71 q 45 -41 53 5 q 59 42 63 74 q 68 107 72 135 q 75 163 78 184 q 81 206 82 220 q 83 232 85 248 l 88 280 q 89 296 90 310 q 91 324 91 332 q 91 343 89 350 q 88 356 85 360 q 83 363 79 364 q 75 365 71 365 q 66 365 59 363 q 52 361 44 359 q 36 356 27 353 l 17 391 q 31 397 48 404 q 65 412 84 419 q 103 426 121 433 q 139 440 155 445 q 171 451 183 454 q 196 457 202 457 q 216 457 225 451 q 234 445 234 425 z m 274 616 q 274 603 268 587 q 262 572 250 560 q 238 547 220 539 q 203 530 180 530 q 165 530 154 534 q 144 538 137 544 q 130 550 127 558 q 124 566 124 574 q 124 587 130 603 q 136 618 148 631 q 160 644 177 652 q 195 661 218 661 q 232 661 243 657 q 254 653 261 647 q 268 641 271 633 q 274 625 274 616 z"},"i":{"x_min":0,"x_max":288,"ha":288,"o":"m 276 60 q 253 46 227 32 q 202 18 177 6 q 152 -5 131 -13 q 109 -20 95 -20 q 78 -20 66 -5 q 54 11 54 37 q 54 52 57 76 q 60 100 65 129 q 70 158 76 188 q 82 219 86 247 q 91 275 94 298 q 98 320 98 332 q 98 343 96 350 q 95 356 92 360 q 90 363 86 364 q 82 365 78 365 q 74 365 66 363 q 59 361 52 359 q 43 356 34 353 l 24 391 q 45 400 73 411 q 100 423 127 433 q 154 443 177 450 q 199 457 209 457 q 223 457 231 448 q 239 438 239 416 q 239 402 236 377 q 232 353 227 324 q 222 295 216 263 q 210 231 205 202 q 200 173 197 148 q 193 124 193 110 q 193 95 197 88 q 200 81 208 81 q 215 81 222 82 q 228 83 235 85 q 241 87 249 90 q 256 93 266 97 z m 287 616 q 287 603 281 587 q 274 572 262 560 q 250 547 233 539 q 215 530 192 530 q 178 530 167 534 q 156 538 149 544 q 143 550 139 558 q 136 566 136 574 q 136 587 142 603 q 148 618 161 631 q 173 644 190 652 q 208 661 230 661 q 245 661 256 657 q 267 653 273 647 q 280 641 283 633 q 287 625 287 616 z"},"y":{"x_min":0,"x_max":486,"ha":486,"o":"m 480 420 q 480 403 466 366 q 452 329 427 278 q 403 227 372 165 q 340 104 305 40 q 271 -23 238 -75 q 205 -127 170 -165 q 136 -203 98 -223 q 60 -244 17 -244 q -3 -244 -24 -239 q -44 -233 -61 -225 q -78 -218 -88 -209 q -98 -201 -98 -195 q -98 -188 -89 -172 q -80 -156 -67 -140 q -55 -124 -42 -110 q -30 -97 -23 -93 q -11 -105 1 -115 q 14 -124 27 -130 q 39 -137 51 -140 q 62 -144 71 -144 q 95 -144 122 -118 q 148 -92 179 -44 q 174 -15 166 19 q 159 54 150 90 q 141 126 131 162 q 122 197 112 229 q 103 260 94 285 q 85 310 79 325 q 67 350 60 357 q 52 365 43 365 q 39 365 31 363 q 23 361 15 359 q 6 356 -4 353 l -15 391 q 7 402 32 414 q 57 425 80 435 q 103 445 121 451 q 140 457 149 457 q 163 457 174 443 q 185 429 196 395 q 205 372 214 341 q 224 310 233 275 q 243 239 252 201 q 262 162 270 123 q 289 161 305 196 q 321 231 333 261 q 344 291 351 313 q 358 336 358 347 q 358 372 332 373 q 324 374 315 371 q 307 368 292 362 l 279 399 q 296 410 318 420 q 339 430 361 438 q 382 447 402 452 q 421 457 435 457 q 443 457 451 456 q 459 455 466 451 q 472 447 476 439 q 480 432 480 420 z"},"@":{"x_min":0,"x_max":844,"ha":844,"o":"m 463 163 q 465 182 469 208 q 473 235 478 262 q 482 290 487 315 q 491 340 494 358 q 483 368 471 375 q 459 381 448 381 q 430 381 415 372 q 399 363 387 347 q 375 332 367 312 q 358 292 353 270 q 347 249 344 226 q 341 204 341 185 q 341 159 345 140 q 348 122 353 109 q 358 97 364 92 q 370 86 375 86 q 381 86 390 90 q 398 94 409 103 q 420 111 434 126 q 447 141 463 163 z m 810 268 q 804 226 787 188 q 770 150 745 118 q 721 86 692 61 q 664 35 635 17 q 606 -1 580 -10 q 553 -20 534 -20 q 527 -20 517 -16 q 507 -12 497 -1 q 487 10 478 30 q 469 49 465 79 q 452 59 436 41 q 419 23 401 9 q 383 -4 364 -12 q 346 -20 330 -20 q 313 -20 293 -11 q 273 -1 256 19 q 239 39 227 71 q 216 103 216 149 q 216 188 226 224 q 235 261 254 295 q 273 329 300 358 q 327 388 361 411 q 375 420 393 428 q 411 437 430 443 q 449 449 468 453 q 487 457 503 457 q 523 457 542 448 q 562 439 579 430 q 596 438 613 444 q 629 451 642 457 l 659 420 q 651 414 645 408 q 639 403 635 396 q 630 389 627 378 q 624 368 621 352 q 613 316 608 285 q 602 253 598 227 q 595 201 593 181 q 591 162 591 151 q 591 121 599 105 q 606 90 618 90 q 643 90 662 128 q 681 166 693 249 q 706 332 692 393 q 679 454 646 494 q 614 534 567 553 q 521 573 466 573 q 408 573 356 547 q 304 521 264 476 q 224 431 196 371 q 169 312 160 246 q 151 187 158 138 q 165 90 183 51 q 201 13 229 -16 q 256 -44 290 -63 q 323 -82 361 -91 q 398 -101 436 -101 q 463 -101 490 -95 q 516 -90 542 -82 q 567 -74 590 -63 q 613 -53 633 -42 q 653 -30 668 -20 q 684 -9 694 -1 l 712 -52 q 693 -71 663 -94 q 632 -116 591 -136 q 550 -156 501 -170 q 451 -183 395 -183 q 338 -183 287 -170 q 236 -157 192 -132 q 148 -107 114 -72 q 80 -36 58 10 q 37 55 29 110 q 21 165 29 227 q 37 282 58 335 q 79 388 112 435 q 144 481 187 521 q 229 561 280 590 q 330 619 388 635 q 445 651 507 651 q 578 651 639 625 q 700 600 742 551 q 785 502 804 431 q 823 359 810 268 z"},".":{"x_min":0,"x_max":244,"ha":244,"o":"m 182 84 q 182 67 176 49 q 170 32 158 18 q 146 3 127 -6 q 109 -15 85 -15 q 51 -15 36 1 q 20 17 20 43 q 20 59 27 76 q 34 93 46 107 q 59 122 77 131 q 95 140 118 140 q 150 140 166 124 q 182 108 182 84 z"},"p":{"x_min":0,"x_max":510,"ha":510,"o":"m 308 364 q 300 364 288 357 q 275 351 260 337 q 245 324 228 304 q 211 285 196 258 q 192 232 187 202 q 182 172 176 137 q 185 125 197 116 q 209 107 223 100 q 236 93 249 90 q 262 86 271 86 q 291 86 306 98 q 321 109 329 126 q 339 148 345 182 q 351 216 351 255 q 351 278 347 298 q 344 318 337 333 q 331 347 323 355 q 315 364 308 364 z m 219 425 q 219 416 217 402 q 216 388 213 368 q 239 395 260 412 q 281 429 300 439 q 318 449 335 453 q 352 457 369 457 q 392 457 412 447 q 432 438 448 418 q 463 399 472 371 q 481 343 481 306 q 481 276 475 244 q 469 212 460 182 q 450 151 438 125 q 426 98 413 77 q 402 60 388 42 q 374 24 357 11 q 341 -3 322 -11 q 304 -20 284 -20 q 273 -20 259 -15 q 244 -10 228 0 q 212 10 196 26 q 179 42 164 63 l 154 3 q 146 -47 141 -82 q 136 -116 134 -139 q 131 -162 132 -174 q 132 -187 135 -194 q 130 -195 120 -199 q 110 -202 97 -207 q 84 -212 71 -218 q 57 -224 44 -229 q 32 -234 22 -238 q 12 -242 8 -244 l -13 -225 q -11 -211 -6 -183 q -1 -155 6 -118 q 12 -81 20 -38 q 28 5 36 50 q 44 95 52 139 q 60 183 65 220 q 71 258 75 287 q 78 316 78 332 q 78 343 76 350 q 74 356 71 360 q 67 363 63 364 q 60 365 55 365 q 51 365 43 363 q 36 361 29 359 q 20 356 11 353 l 2 391 q 24 401 52 413 q 81 424 109 434 q 136 444 159 451 q 181 457 191 457 q 205 457 212 450 q 219 444 219 425 z"},"X":{"x_min":0,"x_max":598,"ha":598,"o":"m 551 0 l 297 0 l 302 41 q 323 42 335 46 q 348 49 354 53 q 360 58 360 65 q 360 72 355 82 l 276 238 l 155 82 q 146 71 143 64 q 140 57 144 52 q 147 47 158 45 q 169 42 190 41 l 185 0 l -20 0 l -14 41 q 16 43 37 52 q 59 62 74 82 l 243 305 l 128 534 q 123 544 118 551 q 112 558 105 562 q 98 567 88 570 q 78 572 63 575 l 69 615 l 328 615 l 323 575 q 284 571 271 563 q 257 555 268 534 l 337 396 l 438 534 q 446 545 449 552 q 452 559 448 564 q 444 568 433 571 q 422 573 402 575 l 408 615 l 613 615 l 608 575 q 591 573 578 570 q 565 567 554 562 q 543 558 535 551 q 526 544 519 534 l 370 331 l 495 82 q 500 71 506 64 q 511 57 518 52 q 525 48 534 45 q 543 42 557 41 z"},"*":{"x_min":0,"x_max":364,"ha":364,"o":"m 221 601 l 325 688 q 329 686 338 677 q 346 669 355 660 q 365 651 373 643 q 380 634 383 630 l 374 601 l 241 555 l 352 513 q 351 507 347 494 q 344 481 340 467 q 335 453 332 440 q 328 427 326 422 l 298 413 l 210 507 l 218 378 q 212 375 200 371 q 188 366 175 360 q 162 355 149 351 q 137 347 132 345 l 114 365 l 160 506 l 56 419 q 52 422 43 430 q 35 438 25 447 q 16 456 8 465 q 0 473 -3 477 l 7 506 l 141 553 l 29 594 q 31 600 34 613 q 38 626 42 640 q 45 655 49 667 q 53 680 56 686 l 83 695 l 170 600 l 164 729 q 169 732 181 737 q 193 742 206 747 q 220 752 231 757 q 243 761 249 762 l 267 742 z"},"Y":{"x_min":0,"x_max":575,"ha":575,"o":"m 403 0 l 135 0 l 140 41 q 161 45 175 50 q 189 55 198 59 q 207 64 210 68 q 214 72 215 76 l 240 258 q 229 296 214 337 q 200 378 184 416 q 169 454 154 487 q 139 520 126 542 q 124 548 120 552 q 116 556 109 559 q 102 562 90 563 q 79 564 60 564 l 63 605 q 77 607 95 610 q 113 612 132 615 q 150 617 166 618 q 182 620 191 620 q 205 620 218 614 q 231 607 238 596 q 251 572 265 541 q 279 509 293 475 q 307 440 319 403 q 332 366 343 331 l 473 542 q 481 555 471 562 q 461 570 427 575 l 432 615 l 625 615 l 620 575 q 588 568 573 562 q 558 555 550 542 l 366 252 l 342 76 q 342 73 344 69 q 347 64 354 60 q 361 55 375 50 q 388 45 408 41 z"},"c":{"x_min":0,"x_max":439,"ha":439,"o":"m 458 403 q 447 392 432 377 q 417 362 401 349 q 385 336 371 327 q 356 318 348 318 q 339 318 331 328 q 323 338 314 350 q 305 361 294 371 q 283 381 269 381 q 245 381 226 365 q 207 349 194 322 q 181 295 174 262 q 167 229 167 194 q 167 131 185 96 q 202 62 229 62 q 258 62 296 83 q 333 104 386 147 q 388 145 392 139 q 396 133 400 126 q 404 120 408 115 q 412 109 413 107 q 375 73 342 48 q 310 24 282 9 q 254 -6 229 -13 q 205 -20 181 -20 q 159 -20 134 -12 q 109 -3 87 17 q 66 38 52 72 q 38 106 38 157 q 38 190 44 223 q 51 257 67 288 q 82 320 107 349 q 131 377 167 401 q 181 410 200 420 q 218 430 240 438 q 261 446 284 452 q 307 457 329 457 q 351 457 368 450 q 385 444 400 435 q 415 426 428 417 q 442 408 458 403 z"},"!":{"x_min":0,"x_max":244,"ha":244,"o":"m 182 84 q 182 67 176 49 q 170 32 158 18 q 146 3 127 -6 q 109 -15 85 -15 q 51 -15 36 1 q 20 17 20 43 q 20 59 27 76 q 34 93 46 107 q 59 122 77 131 q 95 140 118 140 q 150 140 166 124 q 182 108 182 84 z m 154 205 q 149 201 142 198 q 135 194 128 191 q 120 188 113 185 q 105 183 99 181 l 87 191 l 109 642 q 120 647 137 656 q 155 665 174 674 q 193 683 210 690 q 228 698 237 701 l 259 684 z"},"/":{"x_min":0,"x_max":445,"ha":445,"o":"m 59 -129 q 54 -133 41 -138 q 28 -143 13 -148 q -2 -153 -16 -158 q -29 -162 -35 -164 l -54 -147 l 383 747 q 390 751 402 757 q 415 762 429 766 q 442 771 455 775 q 468 779 475 781 l 495 765 z"},"[":{"x_min":0,"x_max":376,"ha":376,"o":"m 425 763 q 423 757 420 749 q 416 740 412 732 q 407 723 403 716 q 399 709 397 707 l 270 707 l 161 -88 l 286 -88 l 305 -107 q 303 -112 300 -120 q 296 -128 292 -136 q 288 -145 284 -152 q 280 -160 278 -164 l 32 -164 l 165 781 l 407 781 z"},"6":{"x_min":0,"x_max":473,"ha":473,"o":"m 247 312 q 230 312 208 298 q 186 285 163 261 q 160 242 159 222 q 158 203 158 182 q 158 146 164 121 q 169 96 178 80 q 188 65 200 58 q 213 52 228 52 q 243 52 254 60 q 266 68 275 82 q 284 95 290 113 q 296 130 301 149 q 305 167 306 186 q 308 205 308 221 q 308 249 303 267 q 297 285 289 295 q 280 305 269 308 q 258 312 247 312 z m 439 562 q 382 551 338 530 q 295 509 263 480 q 231 451 211 414 q 190 378 178 336 q 208 360 237 373 q 267 386 292 386 q 325 386 352 375 q 379 363 398 344 q 417 324 427 296 q 438 269 438 236 q 438 209 431 180 q 424 151 410 124 q 397 96 377 71 q 357 45 331 26 q 306 7 275 -4 q 244 -15 208 -15 q 170 -15 137 -1 q 104 13 80 38 q 55 63 40 98 q 26 133 26 176 q 26 229 38 279 q 49 330 72 375 q 95 421 129 460 q 164 500 209 531 q 254 562 310 582 q 366 603 433 610 z"},"r":{"x_min":0,"x_max":426,"ha":426,"o":"m 456 415 q 452 410 445 399 q 439 389 432 376 q 424 363 416 350 q 408 336 401 325 q 394 314 388 307 q 382 300 379 300 q 370 300 361 306 q 353 312 344 320 q 335 327 328 333 q 320 339 312 339 q 300 339 284 328 q 269 318 254 298 q 239 278 225 250 q 211 222 201 187 q 191 150 184 113 q 178 76 179 37 q 171 33 153 25 q 135 17 115 8 q 96 -1 79 -9 q 62 -17 56 -20 l 35 0 q 45 52 55 102 q 64 152 71 196 q 77 240 81 275 q 85 310 85 332 q 85 343 83 350 q 82 356 79 360 q 76 363 73 364 q 69 365 65 365 q 60 365 52 363 q 45 361 38 359 q 29 356 20 353 l 10 391 q 24 397 42 404 q 59 412 78 419 q 96 426 115 433 q 133 440 149 445 q 166 451 178 454 q 191 457 197 457 q 211 457 216 447 q 221 438 221 411 q 221 405 221 397 q 220 389 219 380 q 218 370 217 360 q 215 350 214 341 q 237 376 258 399 q 278 421 296 434 q 313 447 330 452 q 346 457 361 457 q 370 457 382 452 q 394 447 406 440 q 419 434 432 427 q 445 419 456 415 z"},"2":{"x_min":0,"x_max":473,"ha":473,"o":"m 450 501 q 450 480 444 460 q 439 439 426 414 q 413 390 390 359 q 368 329 333 291 q 299 252 251 203 q 203 155 140 93 l 313 93 q 321 93 328 97 q 335 102 341 109 q 346 116 351 125 q 355 134 359 144 q 368 166 373 195 l 414 184 l 381 0 l 3 0 l -5 36 q 82 125 143 193 q 204 261 243 314 q 281 367 299 407 q 316 446 316 477 q 316 512 303 527 q 290 542 263 542 q 245 542 233 534 q 221 525 213 512 q 206 498 203 481 q 201 464 202 446 q 194 442 178 436 q 163 431 146 426 q 128 421 112 417 q 96 414 85 413 l 73 452 q 76 477 96 504 q 116 531 147 553 q 178 575 219 589 q 259 603 304 603 q 332 603 358 598 q 385 593 405 581 q 425 569 438 550 q 450 530 450 501 z"},"{":{"x_min":0,"x_max":344,"ha":344,"o":"m 393 739 q 373 727 357 713 q 340 699 328 684 q 315 669 307 653 q 299 637 297 621 q 294 596 294 576 q 294 556 295 536 q 295 516 296 496 q 296 476 292 451 q 290 430 280 410 q 270 391 255 373 q 241 356 222 342 q 204 328 184 319 q 228 310 246 276 q 264 242 256 188 q 253 162 247 139 q 241 116 234 95 q 228 73 222 52 q 217 32 214 11 q 211 -6 212 -21 q 212 -37 219 -50 q 225 -64 237 -77 q 250 -90 272 -104 l 246 -154 q 205 -137 173 -120 q 141 -104 120 -83 q 99 -62 90 -36 q 81 -10 86 25 q 89 50 95 72 q 101 93 107 114 q 113 135 119 157 q 125 179 129 206 q 134 246 121 261 q 108 276 82 276 l 72 276 q 69 276 67 276 q 64 276 61 275 q 58 274 51 273 l 50 319 q 102 334 128 359 q 153 385 159 421 q 162 447 162 468 q 162 488 161 507 q 160 526 160 546 q 160 567 164 593 q 168 626 187 653 q 205 681 234 704 q 262 727 299 746 q 336 765 377 781 z"},"9":{"x_min":0,"x_max":473,"ha":473,"o":"m 231 281 q 257 281 280 294 q 302 308 321 329 q 326 370 326 418 q 326 454 322 477 q 317 500 310 513 q 302 527 291 532 q 280 537 267 537 q 241 537 224 522 q 207 507 196 483 q 186 460 182 431 q 177 403 177 376 q 177 350 182 332 q 187 313 195 302 q 203 291 212 286 q 222 281 231 281 z m 460 421 q 460 337 434 262 q 408 187 356 128 q 305 68 228 29 q 151 -10 49 -21 l 42 27 q 102 41 146 61 q 191 82 223 109 q 255 137 276 173 q 297 209 309 255 q 283 232 252 217 q 222 202 186 202 q 149 202 123 215 q 97 228 80 249 q 63 270 56 297 q 48 324 48 354 q 48 399 66 443 q 85 488 117 523 q 149 559 193 581 q 237 603 288 603 q 327 603 359 592 q 391 581 413 559 q 436 536 448 502 q 460 467 460 421 z"}," ":{"x_min":0,"x_max":253,"ha":253,"o":""},"I":{"x_min":0,"x_max":318,"ha":318,"o":"m 333 575 q 301 568 285 560 q 269 551 268 544 l 203 70 q 202 64 215 56 q 228 47 260 41 l 254 0 l 5 0 l 10 41 q 42 47 58 55 q 74 63 75 70 l 140 544 q 141 550 128 559 q 115 568 83 575 l 89 615 l 338 615 z"},"H":{"x_min":0,"x_max":649,"ha":649,"o":"m 324 575 q 292 568 275 560 q 259 551 258 544 l 231 354 l 454 354 l 480 544 q 481 550 468 559 q 455 568 423 575 l 429 615 l 679 615 l 673 575 q 641 568 625 560 q 608 551 607 544 l 542 70 q 542 64 555 56 q 568 47 600 41 l 595 0 l 345 0 l 350 41 q 382 47 398 55 q 415 63 416 70 l 446 291 l 223 291 l 193 70 q 192 64 205 56 q 218 47 250 41 l 245 0 l -5 0 l 0 41 q 32 47 49 55 q 65 63 66 70 l 131 544 q 132 550 119 559 q 105 568 74 575 l 79 615 l 329 615 z"},"4":{"x_min":0,"x_max":473,"ha":473,"o":"m 445 220 q 439 212 431 203 q 424 195 416 187 q 408 179 401 172 q 394 166 388 161 l 360 161 l 347 70 q 347 66 349 63 q 352 60 358 56 q 365 53 376 49 q 388 45 407 41 l 401 0 l 125 0 l 130 41 q 160 46 179 51 q 199 55 210 59 q 221 63 226 67 q 230 71 230 76 l 242 161 l 30 161 l 13 182 l 282 568 q 294 572 310 577 q 325 583 341 588 l 373 598 q 388 604 400 608 l 418 586 l 370 235 l 435 235 z m 125 235 l 252 235 l 284 469 z"},"~":{"x_min":0,"x_max":480,"ha":480,"o":"m 461 378 q 449 354 431 328 q 413 303 392 281 q 371 260 348 247 q 326 233 304 233 q 285 233 265 245 q 246 257 226 272 q 206 287 186 299 q 166 311 146 311 q 124 311 103 292 q 82 273 57 232 l 34 245 q 47 269 65 295 q 83 320 104 342 q 125 363 147 376 q 170 390 191 390 q 212 390 233 378 q 253 366 273 351 q 292 336 311 324 q 330 312 349 312 q 370 312 392 331 q 415 350 439 390 z"},"D":{"x_min":0,"x_max":604,"ha":604,"o":"m 290 574 q 283 574 275 573 q 268 572 261 572 l 195 83 q 193 68 206 62 q 218 56 251 56 q 284 56 312 68 q 340 81 363 103 q 386 125 404 154 q 421 183 433 216 q 444 250 450 285 q 457 321 457 355 q 457 407 448 448 q 439 489 419 517 q 399 545 368 560 q 336 574 290 574 z m 594 369 q 594 326 583 282 q 573 238 552 197 q 531 156 502 120 q 472 84 434 57 q 396 31 351 15 q 306 0 254 0 l -5 0 l 0 41 q 31 47 47 55 q 63 63 64 70 l 132 561 l 65 550 l 65 600 q 93 607 125 612 q 156 618 188 622 q 220 625 250 628 q 281 630 306 630 q 381 630 436 612 q 490 594 525 560 q 561 526 577 478 q 594 429 594 369 z"},"^":{"x_min":0,"x_max":458,"ha":458,"o":"m 417 310 q 403 299 391 291 q 379 284 363 276 l 348 289 l 270 642 l 109 310 q 104 305 96 300 q 89 295 81 290 q 74 286 67 282 q 60 278 55 276 l 46 289 l 252 714 q 258 720 267 726 q 276 732 285 738 q 294 744 303 749 q 312 753 319 757 z"},"0":{"x_min":0,"x_max":473,"ha":473,"o":"m 322 398 q 322 437 318 463 q 313 490 305 506 q 296 522 285 530 q 273 537 260 537 q 235 537 217 517 q 198 498 185 466 q 172 435 164 396 q 156 356 152 317 q 147 278 145 243 q 144 208 144 186 q 144 115 159 83 q 174 52 209 52 q 230 52 246 68 q 263 84 275 111 q 288 138 297 174 q 306 209 311 248 q 317 286 320 325 q 322 364 322 398 z m 453 383 q 453 344 450 309 q 446 274 438 242 q 431 209 418 178 q 405 146 386 115 q 370 88 349 64 q 328 41 302 23 q 277 5 247 -5 q 217 -15 183 -15 q 145 -15 114 3 q 83 21 60 52 q 38 83 25 123 q 13 163 13 206 q 13 248 17 282 q 20 316 28 347 q 36 377 48 407 q 60 437 77 469 q 92 497 114 521 q 135 546 162 564 q 188 582 219 593 q 250 603 285 603 q 319 603 349 588 q 380 573 403 544 q 426 516 440 475 q 453 434 453 383 z"},"F":{"x_min":0,"x_max":476,"ha":476,"o":"m 413 340 q 408 332 401 322 q 394 312 387 302 q 380 292 374 285 q 367 277 361 273 q 355 281 349 286 q 342 291 332 294 q 322 297 308 299 q 294 300 275 300 l 224 300 l 193 70 q 192 67 195 64 q 198 61 206 57 q 214 53 228 49 q 242 45 264 41 l 259 0 l -5 0 l 0 41 q 32 47 49 55 q 65 63 66 70 l 131 544 q 132 550 119 559 q 105 568 74 575 l 79 615 l 495 615 l 511 598 q 509 585 505 565 q 500 544 495 523 q 489 501 484 482 q 478 463 474 454 l 435 454 q 439 500 434 526 q 428 552 411 552 l 259 552 l 232 359 l 398 359 z"},"`":{"x_min":0,"x_max":296,"ha":296,"o":"m 284 516 q 274 510 261 504 q 248 499 239 496 l 92 670 l 113 697 q 119 698 135 702 q 151 705 169 708 q 187 712 203 715 q 219 717 226 717 z"},"k":{"x_min":0,"x_max":507,"ha":507,"o":"m 264 692 q 264 673 261 645 q 258 617 253 582 q 249 547 242 508 q 236 469 229 427 q 222 386 215 344 q 208 301 202 262 l 277 317 q 311 342 331 359 q 351 375 355 385 q 359 394 348 397 q 337 400 311 399 l 306 438 q 328 441 350 444 q 372 447 392 449 q 413 452 431 453 q 450 454 465 454 q 496 454 507 445 q 517 436 517 419 q 517 412 507 399 q 496 387 476 370 q 456 354 427 334 q 398 313 361 291 l 299 252 q 311 239 322 221 q 333 204 344 185 q 354 166 365 147 q 375 128 385 114 q 395 99 405 90 q 414 81 424 81 q 435 81 453 85 q 471 88 489 99 l 507 62 q 491 49 471 34 q 451 20 431 8 q 411 -4 393 -11 q 375 -19 364 -19 q 348 -19 333 -5 q 318 9 303 31 q 289 53 275 81 q 261 108 248 136 q 234 164 222 188 q 209 213 197 229 q 191 194 187 164 q 183 133 181 108 q 179 83 178 64 q 178 46 181 38 q 176 35 166 31 q 156 26 144 21 q 131 15 117 9 q 103 2 90 -3 q 78 -9 68 -13 q 58 -18 54 -20 l 32 0 q 34 14 39 44 q 44 74 51 115 q 57 155 65 202 q 73 250 81 300 q 89 350 96 398 q 104 447 110 489 q 116 532 119 565 q 123 598 123 617 q 123 629 121 636 q 120 643 117 646 q 114 649 109 650 q 105 651 99 651 q 95 651 87 649 q 80 646 71 644 q 62 641 51 638 l 42 676 q 62 686 92 697 q 121 708 149 719 q 178 729 201 735 q 225 742 235 742 q 242 742 247 741 q 252 739 256 734 q 260 729 262 719 q 264 709 264 692 z"},"u":{"x_min":0,"x_max":550,"ha":550,"o":"m 537 58 q 518 44 497 31 q 476 17 457 6 q 437 -6 420 -13 q 402 -20 390 -20 q 378 -20 367 -13 q 355 -6 346 7 q 336 21 329 42 q 321 62 318 89 q 300 65 278 45 q 256 25 233 11 q 210 -3 187 -12 q 164 -20 143 -20 q 128 -20 112 -12 q 96 -5 82 10 q 69 25 60 48 q 52 70 52 100 q 52 115 54 134 q 56 154 60 176 q 63 197 67 220 q 71 243 75 264 q 79 285 81 302 q 83 320 83 332 q 83 343 82 350 q 80 356 77 360 q 75 363 71 364 q 67 365 63 365 q 59 365 51 363 q 43 361 36 359 q 27 356 18 353 l 9 391 q 23 397 41 404 q 59 412 78 419 q 97 426 116 433 q 135 440 151 445 q 168 451 181 454 q 194 457 200 457 q 214 457 219 448 q 224 438 224 416 q 224 402 221 379 q 218 356 214 330 q 209 303 205 274 q 200 246 195 219 q 191 192 188 170 q 185 147 185 133 q 185 112 193 100 q 200 88 207 88 q 223 88 253 112 q 283 136 323 190 q 326 210 330 230 q 333 251 336 270 q 339 289 342 305 q 344 321 344 332 q 344 343 343 350 q 341 356 339 360 q 336 363 333 364 q 330 365 326 365 q 321 365 314 363 q 308 361 301 359 q 293 356 285 353 l 275 391 q 289 397 306 404 q 323 412 342 419 q 361 426 379 433 q 398 440 414 445 q 430 451 443 454 q 456 457 462 457 q 476 457 480 448 q 484 438 484 416 q 484 402 482 382 q 479 361 476 338 l 467 290 q 463 265 459 241 q 456 217 453 196 q 451 174 451 158 q 451 136 452 121 q 454 106 458 97 q 461 88 466 85 q 471 81 477 81 q 489 81 500 84 q 510 87 528 95 z"},"]":{"x_min":0,"x_max":345,"ha":345,"o":"m 219 -164 l -23 -164 l -42 -145 q -40 -139 -36 -131 q -33 -123 -29 -114 q -25 -106 -21 -99 q -18 -91 -16 -88 l 112 -88 l 224 707 l 100 707 l 81 724 q 83 729 86 738 q 89 746 93 754 q 97 762 100 770 q 104 777 106 781 l 351 781 z"},"U":{"x_min":0,"x_max":626,"ha":626,"o":"m 654 575 q 624 568 609 560 q 594 551 593 544 l 552 250 q 543 186 519 136 q 495 87 460 53 q 425 20 381 2 q 337 -15 289 -15 q 249 -15 212 -3 q 175 9 146 33 q 118 56 101 91 q 83 125 83 170 q 83 196 88 226 l 133 544 q 134 550 121 559 q 108 568 77 575 l 83 615 l 329 615 l 324 575 q 293 568 277 560 q 260 551 259 544 l 216 249 q 214 235 212 221 q 211 207 211 194 q 211 125 240 94 q 268 62 329 62 q 360 62 384 74 q 407 86 423 109 q 438 131 448 162 q 458 192 462 229 l 507 544 q 507 547 505 551 q 502 555 496 559 q 490 563 480 567 q 469 571 454 575 l 459 615 l 660 615 z"},"o":{"x_min":0,"x_max":451,"ha":451,"o":"m 307 231 q 307 268 301 297 q 294 326 285 345 q 275 365 263 375 q 250 385 238 385 q 212 385 194 369 q 176 354 165 328 q 154 303 150 271 q 145 240 145 209 q 145 176 152 147 q 158 119 169 97 q 179 75 193 62 q 206 50 219 50 q 244 50 260 67 q 277 84 288 110 q 298 137 302 169 q 307 201 307 231 z m 435 273 q 435 240 426 207 q 417 173 402 142 q 386 110 363 82 q 341 53 313 31 q 301 21 285 11 q 269 2 251 -5 q 234 -12 218 -16 q 201 -20 186 -20 q 146 -20 115 -6 q 83 9 62 34 q 40 59 28 94 q 16 128 16 168 q 16 238 45 299 q 75 360 140 410 q 153 420 169 428 q 185 437 202 443 q 219 450 237 453 q 255 457 272 457 q 310 457 340 443 q 371 430 392 405 q 413 381 424 347 q 435 313 435 273 z"},"N":{"x_min":0,"x_max":622,"ha":622,"o":"m 663 575 q 629 570 614 561 q 598 551 597 544 l 521 -15 q 496 -13 477 -7 q 457 -1 442 6 q 428 14 418 24 q 408 34 402 44 l 192 437 l 142 70 q 142 67 144 63 q 146 59 153 55 q 160 51 171 47 q 182 43 199 41 l 194 0 l -1 0 l 4 41 q 38 45 53 54 q 68 63 69 70 l 133 538 q 121 553 106 562 q 92 572 77 575 l 83 615 l 220 615 q 226 615 230 614 q 235 613 239 609 q 243 605 247 597 q 251 590 258 577 l 474 172 l 525 544 q 525 547 523 552 q 521 556 515 560 q 508 564 497 568 q 486 572 468 575 l 473 615 l 668 615 z"},"+":{"x_min":0,"x_max":408,"ha":408,"o":"m 383 296 q 381 291 377 282 q 373 274 368 265 q 363 256 359 249 q 354 241 353 237 l 238 237 l 221 108 q 216 105 209 103 q 202 100 194 97 q 186 94 178 91 q 170 89 165 88 l 152 104 l 170 237 l 40 237 l 27 253 q 29 259 33 267 q 37 275 41 283 q 46 292 50 300 q 55 308 57 312 l 181 312 l 199 442 q 203 444 210 447 q 218 449 226 452 q 234 455 242 458 q 250 460 254 461 l 267 445 l 249 312 l 370 312 z"},"G":{"x_min":0,"x_max":555,"ha":555,"o":"m 557 268 q 530 260 519 250 q 507 239 505 228 q 503 215 501 194 q 499 174 496 153 q 493 131 491 113 q 489 94 488 85 q 451 55 418 36 q 385 17 357 5 q 328 -6 304 -11 q 279 -15 260 -15 q 214 -15 172 3 q 130 21 98 54 q 65 87 46 135 q 27 182 27 241 q 27 287 38 332 q 48 376 67 416 q 86 456 113 491 q 139 526 171 553 q 192 571 215 585 q 238 600 265 609 q 292 619 323 625 q 354 630 392 630 q 410 630 433 626 q 456 623 479 617 q 501 610 521 601 q 542 592 554 580 q 556 578 553 570 q 550 562 544 550 q 539 538 531 524 q 522 510 514 498 q 506 485 499 476 q 492 466 487 462 l 454 470 q 447 489 437 507 q 427 524 413 537 q 398 551 379 559 q 360 567 335 567 q 313 567 290 556 q 266 544 242 520 q 225 502 210 473 q 194 443 183 407 q 172 372 165 334 q 159 296 159 262 q 159 209 171 173 q 184 136 204 112 q 224 89 249 78 q 273 67 298 67 q 311 67 328 70 q 346 73 363 86 l 384 228 q 384 233 383 238 q 381 243 371 248 q 361 252 340 257 q 319 262 283 268 l 286 309 l 560 309 z"},"q":{"x_min":0,"x_max":475,"ha":475,"o":"m 185 86 q 190 86 198 90 q 207 94 219 105 q 231 115 247 133 q 263 150 283 177 l 311 347 q 297 360 282 371 q 268 381 255 381 q 235 381 219 372 q 202 363 189 347 q 176 332 167 312 q 157 292 150 270 q 144 249 141 226 q 138 204 138 185 q 138 159 142 140 q 146 122 152 109 q 159 97 167 92 q 176 86 185 86 z m 474 420 q 465 414 459 408 q 453 403 448 396 q 443 389 439 378 q 436 368 433 352 q 422 287 412 224 q 401 162 393 104 q 384 47 377 -2 q 370 -52 367 -91 q 363 -130 364 -156 q 364 -183 369 -194 q 365 -195 355 -199 q 345 -203 332 -208 q 319 -213 304 -218 q 290 -224 277 -229 q 265 -234 255 -238 q 245 -242 241 -244 l 219 -225 q 221 -209 225 -180 q 229 -151 236 -113 q 242 -75 249 -29 q 256 17 265 67 q 243 42 224 25 q 206 9 190 -1 q 174 -12 160 -16 q 145 -20 130 -20 q 112 -20 92 -11 q 72 -1 55 19 q 38 39 27 71 q 16 103 16 149 q 16 188 26 225 q 36 262 55 296 q 74 330 101 359 q 128 389 163 411 q 177 420 195 428 q 214 437 234 443 q 254 449 273 453 q 293 457 309 457 q 329 457 350 448 q 370 438 388 426 q 406 435 424 443 q 442 451 455 457 z"},"d":{"x_min":0,"x_max":505,"ha":505,"o":"m 282 179 q 287 212 294 256 q 301 300 309 349 q 296 362 282 372 q 269 381 253 381 q 233 381 218 372 q 202 363 189 347 q 177 332 168 312 q 159 292 153 270 q 147 249 144 226 q 142 204 142 185 q 142 133 154 109 q 166 86 184 86 q 188 86 197 89 q 205 93 217 103 q 229 113 246 131 q 262 149 282 179 z m 493 57 q 472 42 451 29 q 430 15 411 4 q 392 -6 376 -13 q 360 -20 350 -20 q 341 -20 331 -15 q 320 -9 309 3 q 299 16 291 36 q 282 57 279 87 q 237 31 199 5 q 161 -20 130 -20 q 110 -20 90 -10 q 69 0 53 21 q 37 42 26 75 q 16 108 16 154 q 16 192 26 229 q 36 265 54 298 q 73 331 100 360 q 127 388 162 411 q 176 420 193 428 q 209 436 228 443 q 246 449 266 453 q 285 457 304 457 q 309 457 314 455 q 319 454 325 451 q 333 505 338 549 q 344 594 344 618 q 344 629 342 636 q 340 643 337 646 q 334 649 330 650 q 326 651 322 651 q 317 651 310 649 q 302 646 294 644 q 285 641 274 638 l 266 676 q 292 689 320 701 q 348 713 374 722 q 399 731 419 737 q 438 742 448 742 q 465 742 475 733 q 485 725 485 702 q 485 683 481 653 q 478 624 472 587 q 467 550 460 508 q 453 466 445 424 q 438 382 430 341 q 423 300 418 264 q 412 229 409 200 q 405 172 405 156 q 405 119 413 101 q 421 82 432 82 q 444 82 456 85 q 467 87 484 95 z"},"1":{"x_min":0,"x_max":473,"ha":473,"o":"m 394 0 l 35 0 l 41 45 q 77 50 102 55 q 126 61 141 67 q 156 73 162 78 q 169 84 170 89 l 218 439 q 220 459 220 470 q 221 480 216 487 q 213 490 207 492 q 200 494 187 494 q 173 493 152 490 q 131 487 100 480 l 93 525 q 106 527 126 533 q 147 539 171 547 q 194 554 219 563 q 245 572 268 580 q 291 588 310 596 q 330 603 342 608 l 360 586 l 292 89 q 292 84 296 79 q 300 73 312 67 q 324 62 345 56 q 366 50 399 45 z"},"5":{"x_min":0,"x_max":473,"ha":473,"o":"m 463 578 q 458 569 447 556 q 436 543 424 530 q 413 517 402 506 q 391 495 385 490 l 184 490 q 181 476 177 459 q 172 442 168 426 q 164 409 159 394 q 155 379 152 368 q 170 378 198 384 q 226 391 255 391 q 298 391 330 377 q 361 363 381 341 q 401 318 411 290 q 421 262 421 233 q 421 204 414 174 q 407 145 394 117 q 380 89 360 65 q 340 41 313 23 q 286 5 251 -5 q 217 -15 177 -15 q 155 -15 132 -10 q 108 -4 86 6 q 63 16 43 31 q 22 46 5 65 l 35 113 q 57 96 76 84 q 95 73 113 67 q 130 60 146 57 q 162 55 178 55 q 201 55 222 66 q 244 78 260 99 q 276 119 285 147 q 295 175 295 207 q 295 231 289 250 q 282 270 271 284 q 259 297 242 305 q 225 312 205 312 q 165 312 136 300 q 106 288 81 269 l 60 285 q 66 302 74 327 q 81 352 89 379 q 97 407 104 437 q 112 467 119 494 q 125 522 131 546 q 137 571 140 588 l 393 588 q 405 588 415 589 q 425 590 432 592 q 440 594 447 597 z"}}}
